<?xml version="1.0" encoding="UTF-8"?>
<!DOCTYPE svg PUBLIC "-//W3C//DTD SVG 1.1//EN" "http://www.w3.org/Graphics/SVG/1.1/DTD/svg11.dtd">
<svg version="1.2" width="90.43mm" height="64.65mm" viewBox="3618 2023 9043 6465" preserveAspectRatio="xMidYMid" fill-rule="evenodd" stroke-width="28.222" stroke-linejoin="round" xmlns="http://www.w3.org/2000/svg" xmlns:ooo="http://xml.openoffice.org/svg/export" xmlns:xlink="http://www.w3.org/1999/xlink" xmlns:presentation="http://sun.com/xmlns/staroffice/presentation" xmlns:smil="http://www.w3.org/2001/SMIL20/" xmlns:anim="urn:oasis:names:tc:opendocument:xmlns:animation:1.0" xml:space="preserve">
 <defs class="EmbeddedBulletChars">
  <g id="bullet-char-template-57356" transform="scale(0.00048828125,-0.00048828125)">
   <path d="M 580,1141 L 1163,571 580,0 -4,571 580,1141 Z"/>
  </g>
  <g id="bullet-char-template-57354" transform="scale(0.00048828125,-0.00048828125)">
   <path d="M 8,1128 L 1137,1128 1137,0 8,0 8,1128 Z"/>
  </g>
  <g id="bullet-char-template-10146" transform="scale(0.00048828125,-0.00048828125)">
   <path d="M 174,0 L 602,739 174,1481 1456,739 174,0 Z M 1358,739 L 309,1346 659,739 1358,739 Z"/>
  </g>
  <g id="bullet-char-template-10132" transform="scale(0.00048828125,-0.00048828125)">
   <path d="M 2015,739 L 1276,0 717,0 1260,543 174,543 174,936 1260,936 717,1481 1274,1481 2015,739 Z"/>
  </g>
  <g id="bullet-char-template-10007" transform="scale(0.00048828125,-0.00048828125)">
   <path d="M 0,-2 C -7,14 -16,27 -25,37 L 356,567 C 262,823 215,952 215,954 215,979 228,992 255,992 264,992 276,990 289,987 310,991 331,999 354,1012 L 381,999 492,748 772,1049 836,1024 860,1049 C 881,1039 901,1025 922,1006 886,937 835,863 770,784 769,783 710,716 594,584 L 774,223 C 774,196 753,168 711,139 L 727,119 C 717,90 699,76 672,76 641,76 570,178 457,381 L 164,-76 C 142,-110 111,-127 72,-127 30,-127 9,-110 8,-76 1,-67 -2,-52 -2,-32 -2,-23 -1,-13 0,-2 Z"/>
  </g>
  <g id="bullet-char-template-10004" transform="scale(0.00048828125,-0.00048828125)">
   <path d="M 285,-33 C 182,-33 111,30 74,156 52,228 41,333 41,471 41,549 55,616 82,672 116,743 169,778 240,778 293,778 328,747 346,684 L 369,508 C 377,444 397,411 428,410 L 1163,1116 C 1174,1127 1196,1133 1229,1133 1271,1133 1292,1118 1292,1087 L 1292,965 C 1292,929 1282,901 1262,881 L 442,47 C 390,-6 338,-33 285,-33 Z"/>
  </g>
  <g id="bullet-char-template-9679" transform="scale(0.00048828125,-0.00048828125)">
   <path d="M 813,0 C 632,0 489,54 383,161 276,268 223,411 223,592 223,773 276,916 383,1023 489,1130 632,1184 813,1184 992,1184 1136,1130 1245,1023 1353,916 1407,772 1407,592 1407,412 1353,268 1245,161 1136,54 992,0 813,0 Z"/>
  </g>
  <g id="bullet-char-template-8226" transform="scale(0.00048828125,-0.00048828125)">
   <path d="M 346,457 C 273,457 209,483 155,535 101,586 74,649 74,723 74,796 101,859 155,911 209,963 273,989 346,989 419,989 480,963 531,910 582,859 608,796 608,723 608,648 583,586 532,535 482,483 420,457 346,457 Z"/>
  </g>
  <g id="bullet-char-template-8211" transform="scale(0.00048828125,-0.00048828125)">
   <path d="M -4,459 L 1135,459 1135,606 -4,606 -4,459 Z"/>
  </g>
  <g id="bullet-char-template-61548" transform="scale(0.00048828125,-0.00048828125)">
   <path d="M 173,740 C 173,903 231,1043 346,1159 462,1274 601,1332 765,1332 928,1332 1067,1274 1183,1159 1299,1043 1357,903 1357,740 1357,577 1299,437 1183,322 1067,206 928,148 765,148 601,148 462,206 346,322 231,437 173,577 173,740 Z"/>
  </g>
 </defs>
 <g class="Page">
  <g class="Group">
   <g class="com.sun.star.drawing.PolyPolygonShape">
    <g id="id3">
     <rect class="BoundingBox" stroke="none" fill="none" x="8560" y="5226" width="3317" height="2492"/>
     <path fill="rgb(255,255,255)" stroke="none" d="M 11238,5226 L 8560,6495 9163,7716 11875,6436 11238,5226 Z"/>
    </g>
   </g>
   <g class="com.sun.star.drawing.PolyLineShape">
    <g id="id4">
     <rect class="BoundingBox" stroke="none" fill="none" x="8515" y="5192" width="3395" height="2569"/>
     <path fill="none" stroke="rgb(0,0,0)" stroke-width="66" stroke-linejoin="miter" stroke-linecap="round" d="M 11238,5226 L 8560,6495 9163,7716 11875,6436"/>
    </g>
   </g>
   <g class="com.sun.star.drawing.ClosedBezierShape">
    <g id="id5">
     <rect class="BoundingBox" stroke="none" fill="none" x="11237" y="5192" width="830" height="1246"/>
     <path fill="rgb(255,255,255)" stroke="none" d="M 11237,5226 C 11439,5114 11751,5291 11935,5622 12120,5952 12106,6310 11904,6423 11894,6428 11883,6433 11873,6437 L 11237,5226 Z"/>
    </g>
   </g>
   <g class="com.sun.star.drawing.OpenBezierShape">
    <g id="id6">
     <rect class="BoundingBox" stroke="none" fill="none" x="11203" y="5159" width="897" height="1312"/>
     <path fill="none" stroke="rgb(0,0,0)" stroke-width="66" stroke-linejoin="miter" stroke-linecap="round" d="M 11237,5226 C 11439,5114 11751,5291 11935,5622 12120,5952 12106,6310 11904,6423 11894,6428 11883,6433 11873,6437"/>
    </g>
   </g>
   <g class="com.sun.star.drawing.ClosedBezierShape">
    <g id="id7">
     <rect class="BoundingBox" stroke="none" fill="none" x="8303" y="6451" width="1057" height="1333"/>
     <path fill="rgb(255,255,255)" stroke="none" d="M 9195,6915 C 9380,7245 9366,7603 9164,7716 8963,7828 8650,7651 8466,7321 8281,6991 8295,6631 8498,6519 8699,6407 9011,6583 9195,6915 Z"/>
     <path fill="none" stroke="rgb(0,0,0)" stroke-width="66" stroke-linejoin="miter" d="M 9195,6915 C 9380,7245 9366,7603 9164,7716 8963,7828 8650,7651 8466,7321 8281,6991 8295,6631 8498,6519 8699,6407 9011,6583 9195,6915 Z"/>
    </g>
   </g>
   <g class="com.sun.star.drawing.PolyPolygonShape">
    <g id="id8">
     <rect class="BoundingBox" stroke="none" fill="none" x="9821" y="3871" width="521" height="3159"/>
     <path fill="rgb(255,255,255)" stroke="none" d="M 9821,7029 L 10341,3871 9821,7029 Z"/>
    </g>
   </g>
   <g class="com.sun.star.drawing.LineShape">
    <g id="id9">
     <rect class="BoundingBox" stroke="none" fill="none" x="9803" y="3853" width="557" height="3195"/>
     <path fill="none" stroke="rgb(0,0,0)" stroke-width="35" stroke-linejoin="miter" stroke-linecap="round" d="M 9821,7029 L 10341,3871"/>
    </g>
   </g>
   <g class="com.sun.star.drawing.PolyPolygonShape">
    <g id="id10">
     <rect class="BoundingBox" stroke="none" fill="none" x="8433" y="3313" width="399" height="3055"/>
     <path fill="rgb(255,255,255)" stroke="none" d="M 8831,6367 L 8433,3313 8831,6367 Z"/>
    </g>
   </g>
   <g class="com.sun.star.drawing.LineShape">
    <g id="id11">
     <rect class="BoundingBox" stroke="none" fill="none" x="8415" y="3295" width="435" height="3091"/>
     <path fill="none" stroke="rgb(0,0,0)" stroke-width="35" stroke-linejoin="miter" stroke-linecap="round" d="M 8831,6367 L 8433,3313"/>
    </g>
   </g>
   <g class="com.sun.star.drawing.LineShape">
    <g id="id12">
     <rect class="BoundingBox" stroke="none" fill="none" x="8149" y="3211" width="2513" height="773"/>
     <path fill="none" stroke="rgb(0,0,0)" stroke-width="52" stroke-linejoin="miter" stroke-linecap="round" d="M 8176,3238 L 10634,3956"/>
    </g>
   </g>
   <g class="com.sun.star.drawing.PolyPolygonShape">
    <g id="id13">
     <rect class="BoundingBox" stroke="none" fill="none" x="11666" y="2996" width="535" height="3155"/>
     <path fill="rgb(255,255,255)" stroke="none" d="M 11666,6150 L 12200,2996 11666,6150 Z"/>
    </g>
   </g>
   <g class="com.sun.star.drawing.LineShape">
    <g id="id14">
     <rect class="BoundingBox" stroke="none" fill="none" x="11648" y="2978" width="571" height="3191"/>
     <path fill="none" stroke="rgb(0,0,0)" stroke-width="35" stroke-linejoin="miter" stroke-linecap="round" d="M 11666,6150 L 12200,2996"/>
    </g>
   </g>
   <g class="com.sun.star.drawing.PolyPolygonShape">
    <g id="id15">
     <rect class="BoundingBox" stroke="none" fill="none" x="10278" y="2434" width="398" height="3055"/>
     <path fill="rgb(255,255,255)" stroke="none" d="M 10675,5488 L 10278,2434 10675,5488 Z"/>
    </g>
   </g>
   <g class="com.sun.star.drawing.LineShape">
    <g id="id16">
     <rect class="BoundingBox" stroke="none" fill="none" x="10260" y="2416" width="434" height="3091"/>
     <path fill="none" stroke="rgb(0,0,0)" stroke-width="35" stroke-linejoin="miter" stroke-linecap="round" d="M 10675,5488 L 10278,2434"/>
    </g>
   </g>
   <g class="com.sun.star.drawing.LineShape">
    <g id="id17">
     <rect class="BoundingBox" stroke="none" fill="none" x="9987" y="2325" width="2527" height="782"/>
     <path fill="none" stroke="rgb(0,0,0)" stroke-width="66" stroke-linejoin="miter" stroke-linecap="round" d="M 10021,2359 L 12479,3072"/>
    </g>
   </g>
   <g class="com.sun.star.drawing.LineShape">
    <g id="id18">
     <rect class="BoundingBox" stroke="none" fill="none" x="8198" y="2023" width="4403" height="2091"/>
     <path fill="none" stroke="rgb(0,0,0)" stroke-width="22" stroke-linejoin="miter" stroke-linecap="round" d="M 8210,4101 L 12588,2035"/>
    </g>
   </g>
   <g class="com.sun.star.drawing.LineShape">
    <g id="id19">
     <rect class="BoundingBox" stroke="none" fill="none" x="8198" y="5304" width="4463" height="2114"/>
     <path fill="none" stroke="rgb(0,0,0)" stroke-width="22" stroke-linejoin="miter" stroke-linecap="round" d="M 8210,7405 L 12648,5316"/>
    </g>
   </g>
   <g class="com.sun.star.drawing.LineShape">
    <g id="id20">
     <rect class="BoundingBox" stroke="none" fill="none" x="7944" y="6849" width="2164" height="652"/>
     <path fill="none" stroke="rgb(0,0,0)" stroke-width="22" stroke-linejoin="miter" stroke-linecap="round" d="M 7956,6861 L 10095,7488"/>
    </g>
   </g>
   <g class="com.sun.star.drawing.LineShape">
    <g id="id21">
     <rect class="BoundingBox" stroke="none" fill="none" x="10402" y="5736" width="2163" height="652"/>
     <path fill="none" stroke="rgb(0,0,0)" stroke-width="22" stroke-linejoin="miter" stroke-linecap="round" d="M 10414,5748 L 12552,6375"/>
    </g>
   </g>
   <g class="com.sun.star.drawing.LineShape">
    <g id="id22">
     <rect class="BoundingBox" stroke="none" fill="none" x="8812" y="6303" width="23" height="1988"/>
     <path fill="none" stroke="rgb(0,0,0)" stroke-width="22" stroke-linejoin="miter" stroke-linecap="round" d="M 8823,6315 L 8823,8279"/>
    </g>
   </g>
   <g class="com.sun.star.drawing.LineShape">
    <g id="id23">
     <rect class="BoundingBox" stroke="none" fill="none" x="11552" y="5012" width="23" height="1986"/>
     <path fill="none" stroke="rgb(0,0,0)" stroke-width="22" stroke-linejoin="miter" stroke-linecap="round" d="M 11563,5023 L 11563,6986"/>
    </g>
   </g>
   <g class="com.sun.star.drawing.ClosedBezierShape">
    <g id="id24">
     <rect class="BoundingBox" stroke="none" fill="none" x="9782" y="6989" width="80" height="80"/>
     <path fill="rgb(0,0,0)" stroke="none" d="M 9861,7028 C 9861,7049 9844,7068 9821,7068 9800,7068 9783,7049 9783,7028 9783,7007 9800,6989 9821,6989 9844,6989 9861,7007 9861,7028 Z"/>
    </g>
   </g>
   <g class="com.sun.star.drawing.ClosedBezierShape">
    <g id="id25">
     <rect class="BoundingBox" stroke="none" fill="none" x="11627" y="6110" width="80" height="80"/>
     <path fill="rgb(0,0,0)" stroke="none" d="M 11706,6150 C 11706,6171 11687,6189 11666,6189 11644,6189 11627,6171 11627,6150 11627,6127 11644,6110 11666,6110 11687,6110 11706,6127 11706,6150 Z"/>
    </g>
   </g>
   <g class="com.sun.star.drawing.PolyLineShape">
    <g id="id26">
     <rect class="BoundingBox" stroke="none" fill="none" x="10098" y="6867" width="840" height="651"/>
     <path fill="none" stroke="rgb(0,0,0)" stroke-width="44" stroke-linejoin="round" d="M 10124,7261 L 10120,7495 10915,7123 10915,6889"/>
    </g>
   </g>
   <g class="com.sun.star.drawing.LineShape">
    <g id="id27">
     <rect class="BoundingBox" stroke="none" fill="none" x="11519" y="7681" width="131" height="55"/>
     <path fill="none" stroke="rgb(0,0,0)" stroke-width="26" stroke-linejoin="miter" stroke-linecap="round" d="M 11635,7721 L 11533,7695"/>
    </g>
   </g>
   <g class="com.sun.star.drawing.ClosedBezierShape">
    <g id="id28">
     <rect class="BoundingBox" stroke="none" fill="none" x="11413" y="7219" width="364" height="497"/>
     <path fill="none" stroke="rgb(0,0,0)" stroke-width="26" stroke-linejoin="miter" stroke-linecap="round" d="M 11433,7432 C 11406,7561 11456,7680 11545,7699 11633,7718 11727,7630 11755,7502 11782,7373 11732,7254 11644,7235 11556,7216 11461,7304 11433,7432 Z"/>
    </g>
   </g>
   <g class="com.sun.star.drawing.ClosedBezierShape">
    <g id="id29">
     <rect class="BoundingBox" stroke="none" fill="none" x="11510" y="7253" width="325" height="471"/>
     <path fill="rgb(255,255,255)" stroke="none" d="M 11833,7364 C 11815,7308 11778,7267 11729,7256 11639,7237 11546,7326 11518,7454 11491,7583 11540,7702 11629,7721 11672,7730 11718,7713 11755,7679 L 11833,7364 Z"/>
    </g>
   </g>
   <g class="com.sun.star.drawing.OpenBezierShape">
    <g id="id30">
     <rect class="BoundingBox" stroke="none" fill="none" x="11497" y="7240" width="351" height="497"/>
     <path fill="none" stroke="rgb(0,0,0)" stroke-width="26" stroke-linejoin="miter" stroke-linecap="round" d="M 11833,7364 C 11815,7308 11778,7267 11729,7256 11639,7237 11546,7326 11518,7454 11491,7583 11540,7702 11629,7721 11672,7730 11718,7713 11755,7679"/>
    </g>
   </g>
   <g class="com.sun.star.drawing.LineShape">
    <g id="id31">
     <rect class="BoundingBox" stroke="none" fill="none" x="11630" y="7221" width="114" height="50"/>
     <path fill="none" stroke="rgb(0,0,0)" stroke-width="26" stroke-linejoin="miter" stroke-linecap="round" d="M 11644,7235 L 11729,7256"/>
    </g>
   </g>
   <g class="com.sun.star.drawing.ClosedBezierShape">
    <g id="id32">
     <rect class="BoundingBox" stroke="none" fill="none" x="11604" y="7325" width="699" height="464"/>
     <path fill="rgb(255,255,255)" stroke="none" d="M 11696,7325 L 12186,7471 C 12272,7497 12320,7587 12295,7672 12270,7758 12180,7807 12094,7781 L 11604,7636 11696,7325 Z"/>
    </g>
   </g>
   <g class="com.sun.star.drawing.OpenBezierShape">
    <g id="id33">
     <rect class="BoundingBox" stroke="none" fill="none" x="11590" y="7311" width="726" height="491"/>
     <path fill="none" stroke="rgb(0,0,0)" stroke-width="26" stroke-linejoin="miter" stroke-linecap="round" d="M 11696,7325 L 12186,7471 C 12272,7497 12320,7587 12295,7672 12270,7758 12180,7807 12094,7781 L 11604,7636"/>
    </g>
   </g>
   <g class="com.sun.star.drawing.LineShape">
    <g id="id34">
     <rect class="BoundingBox" stroke="none" fill="none" x="11817" y="7689" width="27" height="375"/>
     <path fill="none" stroke="rgb(0,0,0)" stroke-width="26" stroke-linejoin="miter" stroke-linecap="round" d="M 11830,7702 L 11830,8050"/>
    </g>
   </g>
   <g class="com.sun.star.drawing.LineShape">
    <g id="id35">
     <rect class="BoundingBox" stroke="none" fill="none" x="11901" y="7714" width="27" height="356"/>
     <path fill="none" stroke="rgb(0,0,0)" stroke-width="26" stroke-linejoin="miter" stroke-linecap="round" d="M 11914,7727 L 11914,8056"/>
    </g>
   </g>
   <g class="com.sun.star.drawing.OpenBezierShape">
    <g id="id36">
     <rect class="BoundingBox" stroke="none" fill="none" x="11743" y="7970" width="249" height="167"/>
     <path fill="none" stroke="rgb(0,0,0)" stroke-width="26" stroke-linejoin="miter" d="M 11916,7987 C 11952,7998 11977,8023 11977,8052 11977,8091 11928,8123 11867,8123 11805,8123 11756,8091 11756,8052 11756,8020 11787,7993 11830,7983"/>
    </g>
   </g>
   <g class="com.sun.star.drawing.LineShape">
    <g id="id37">
     <rect class="BoundingBox" stroke="none" fill="none" x="11710" y="7407" width="19" height="187"/>
     <path fill="none" stroke="rgb(0,0,0)" stroke-width="17" stroke-linejoin="miter" stroke-linecap="round" d="M 11719,7416 L 11719,7584"/>
    </g>
   </g>
   <g class="com.sun.star.drawing.LineShape">
    <g id="id38">
     <rect class="BoundingBox" stroke="none" fill="none" x="11637" y="7449" width="166" height="104"/>
     <path fill="none" stroke="rgb(0,0,0)" stroke-width="17" stroke-linejoin="miter" stroke-linecap="round" d="M 11646,7458 L 11793,7543"/>
    </g>
   </g>
   <g class="com.sun.star.drawing.LineShape">
    <g id="id39">
     <rect class="BoundingBox" stroke="none" fill="none" x="11637" y="7449" width="166" height="104"/>
     <path fill="none" stroke="rgb(0,0,0)" stroke-width="17" stroke-linejoin="miter" stroke-linecap="round" d="M 11646,7543 L 11793,7458"/>
    </g>
   </g>
   <g class="com.sun.star.drawing.ClosedBezierShape">
    <g id="id40">
     <rect class="BoundingBox" stroke="none" fill="none" x="11677" y="7458" width="88" height="87"/>
     <path fill="rgb(255,255,255)" stroke="none" d="M 11755,7501 C 11755,7520 11740,7535 11721,7535 11701,7535 11686,7520 11686,7501 11686,7482 11701,7467 11721,7467 11740,7467 11755,7482 11755,7501 Z"/>
     <path fill="none" stroke="rgb(0,0,0)" stroke-width="17" stroke-linejoin="miter" stroke-linecap="round" d="M 11755,7501 C 11755,7520 11740,7535 11721,7535 11701,7535 11686,7520 11686,7501 11686,7482 11701,7467 11721,7467 11740,7467 11755,7482 11755,7501 Z"/>
    </g>
   </g>
   <g class="com.sun.star.drawing.LineShape">
    <g id="id41">
     <rect class="BoundingBox" stroke="none" fill="none" x="10840" y="6904" width="27" height="170"/>
     <path fill="none" stroke="rgb(0,0,0)" stroke-width="26" stroke-linejoin="miter" stroke-linecap="round" d="M 10853,7060 L 10853,6917"/>
    </g>
   </g>
   <g class="com.sun.star.drawing.LineShape">
    <g id="id42">
     <rect class="BoundingBox" stroke="none" fill="none" x="10774" y="6935" width="27" height="170"/>
     <path fill="none" stroke="rgb(0,0,0)" stroke-width="26" stroke-linejoin="miter" stroke-linecap="round" d="M 10787,7091 L 10787,6948"/>
    </g>
   </g>
   <g class="com.sun.star.drawing.LineShape">
    <g id="id43">
     <rect class="BoundingBox" stroke="none" fill="none" x="10707" y="6967" width="27" height="169"/>
     <path fill="none" stroke="rgb(0,0,0)" stroke-width="26" stroke-linejoin="miter" stroke-linecap="round" d="M 10720,7122 L 10720,6980"/>
    </g>
   </g>
   <g class="com.sun.star.drawing.LineShape">
    <g id="id44">
     <rect class="BoundingBox" stroke="none" fill="none" x="10641" y="6998" width="27" height="170"/>
     <path fill="none" stroke="rgb(0,0,0)" stroke-width="26" stroke-linejoin="miter" stroke-linecap="round" d="M 10654,7154 L 10654,7011"/>
    </g>
   </g>
   <g class="com.sun.star.drawing.LineShape">
    <g id="id45">
     <rect class="BoundingBox" stroke="none" fill="none" x="10574" y="7029" width="27" height="170"/>
     <path fill="none" stroke="rgb(0,0,0)" stroke-width="26" stroke-linejoin="miter" stroke-linecap="round" d="M 10587,7185 L 10587,7042"/>
    </g>
   </g>
   <g class="com.sun.star.drawing.LineShape">
    <g id="id46">
     <rect class="BoundingBox" stroke="none" fill="none" x="10508" y="7061" width="27" height="170"/>
     <path fill="none" stroke="rgb(0,0,0)" stroke-width="26" stroke-linejoin="miter" stroke-linecap="round" d="M 10521,7216 L 10521,7074"/>
    </g>
   </g>
   <g class="com.sun.star.drawing.LineShape">
    <g id="id47">
     <rect class="BoundingBox" stroke="none" fill="none" x="10441" y="7092" width="27" height="170"/>
     <path fill="none" stroke="rgb(0,0,0)" stroke-width="26" stroke-linejoin="miter" stroke-linecap="round" d="M 10454,7248 L 10454,7105"/>
    </g>
   </g>
   <g class="com.sun.star.drawing.LineShape">
    <g id="id48">
     <rect class="BoundingBox" stroke="none" fill="none" x="10375" y="7124" width="27" height="169"/>
     <path fill="none" stroke="rgb(0,0,0)" stroke-width="26" stroke-linejoin="miter" stroke-linecap="round" d="M 10388,7279 L 10388,7137"/>
    </g>
   </g>
   <g class="com.sun.star.drawing.LineShape">
    <g id="id49">
     <rect class="BoundingBox" stroke="none" fill="none" x="10309" y="7155" width="27" height="170"/>
     <path fill="none" stroke="rgb(0,0,0)" stroke-width="26" stroke-linejoin="miter" stroke-linecap="round" d="M 10322,7311 L 10322,7168"/>
    </g>
   </g>
   <g class="com.sun.star.drawing.LineShape">
    <g id="id50">
     <rect class="BoundingBox" stroke="none" fill="none" x="10242" y="7186" width="27" height="170"/>
     <path fill="none" stroke="rgb(0,0,0)" stroke-width="26" stroke-linejoin="miter" stroke-linecap="round" d="M 10255,7342 L 10255,7199"/>
    </g>
   </g>
   <g class="com.sun.star.drawing.LineShape">
    <g id="id51">
     <rect class="BoundingBox" stroke="none" fill="none" x="10176" y="7218" width="27" height="169"/>
     <path fill="none" stroke="rgb(0,0,0)" stroke-width="26" stroke-linejoin="miter" stroke-linecap="round" d="M 10189,7373 L 10189,7231"/>
    </g>
   </g>
   <g class="com.sun.star.drawing.PolyLineShape">
    <g id="id52">
     <rect class="BoundingBox" stroke="none" fill="none" x="4306" y="6070" width="7301" height="1413"/>
     <path fill="none" stroke="rgb(0,0,0)" stroke-width="26" stroke-linejoin="miter" d="M 11602,7469 L 6599,6084 4312,7163"/>
    </g>
   </g>
   <g class="com.sun.star.drawing.LineShape">
    <g id="id53">
     <rect class="BoundingBox" stroke="none" fill="none" x="7299" y="6867" width="293" height="45"/>
     <path fill="none" stroke="rgb(0,0,0)" stroke-width="44" stroke-linejoin="miter" stroke-linecap="round" d="M 7568,6889 L 7321,6889"/>
    </g>
   </g>
   <g class="com.sun.star.drawing.LineShape">
    <g id="id54">
     <rect class="BoundingBox" stroke="none" fill="none" x="7415" y="6584" width="45" height="328"/>
     <path fill="none" stroke="rgb(0,0,0)" stroke-width="44" stroke-linejoin="miter" stroke-linecap="round" d="M 7437,6606 L 7437,6889"/>
    </g>
   </g>
   <g class="com.sun.star.drawing.LineShape">
    <g id="id55">
     <rect class="BoundingBox" stroke="none" fill="none" x="6494" y="6789" width="294" height="45"/>
     <path fill="none" stroke="rgb(0,0,0)" stroke-width="44" stroke-linejoin="miter" stroke-linecap="round" d="M 6765,6811 L 6517,6811"/>
    </g>
   </g>
   <g class="com.sun.star.drawing.LineShape">
    <g id="id56">
     <rect class="BoundingBox" stroke="none" fill="none" x="6611" y="6507" width="45" height="327"/>
     <path fill="none" stroke="rgb(0,0,0)" stroke-width="44" stroke-linejoin="miter" stroke-linecap="round" d="M 6633,6529 L 6633,6811"/>
    </g>
   </g>
   <g class="com.sun.star.drawing.ClosedBezierShape">
    <g id="id57">
     <rect class="BoundingBox" stroke="none" fill="none" x="7278" y="6067" width="412" height="553"/>
     <path fill="none" stroke="rgb(0,0,0)" stroke-width="44" stroke-linejoin="miter" stroke-linecap="round" d="M 7319,6290 C 7275,6426 7313,6560 7404,6591 7494,6620 7603,6532 7647,6395 7692,6259 7653,6125 7563,6096 7472,6066 7363,6154 7319,6290 Z"/>
    </g>
   </g>
   <g class="com.sun.star.drawing.PolyPolygonShape">
    <g id="id58">
     <rect class="BoundingBox" stroke="none" fill="none" x="6437" y="5664" width="397" height="885"/>
     <path fill="none" stroke="rgb(0,0,0)" stroke-width="44" stroke-linejoin="round" stroke-linecap="round" d="M 6459,6526 L 6811,6526 6811,5686 6459,5686 6459,6526 Z"/>
    </g>
   </g>
   <g class="com.sun.star.drawing.PolyPolygonShape">
    <g id="id59">
     <rect class="BoundingBox" stroke="none" fill="none" x="3827" y="7014" width="955" height="556"/>
     <path fill="none" stroke="rgb(0,0,0)" stroke-width="26" stroke-linejoin="round" stroke-linecap="round" d="M 4768,7555 L 3841,7280 3841,7027 4768,7301 4768,7555 Z"/>
    </g>
   </g>
   <g class="com.sun.star.drawing.LineShape">
    <g id="id60">
     <rect class="BoundingBox" stroke="none" fill="none" x="3915" y="7052" width="23" height="161"/>
     <path fill="none" stroke="rgb(0,0,0)" stroke-width="22" stroke-linejoin="miter" d="M 3926,7212 L 3926,7052"/>
    </g>
   </g>
   <g class="com.sun.star.drawing.LineShape">
    <g id="id61">
     <rect class="BoundingBox" stroke="none" fill="none" x="3992" y="7074" width="23" height="109"/>
     <path fill="none" stroke="rgb(0,0,0)" stroke-width="22" stroke-linejoin="miter" d="M 4003,7182 L 4003,7075"/>
    </g>
   </g>
   <g class="com.sun.star.drawing.LineShape">
    <g id="id62">
     <rect class="BoundingBox" stroke="none" fill="none" x="4068" y="7097" width="23" height="109"/>
     <path fill="none" stroke="rgb(0,0,0)" stroke-width="22" stroke-linejoin="miter" d="M 4079,7205 L 4079,7097"/>
    </g>
   </g>
   <g class="com.sun.star.drawing.LineShape">
    <g id="id63">
     <rect class="BoundingBox" stroke="none" fill="none" x="4144" y="7120" width="23" height="108"/>
     <path fill="none" stroke="rgb(0,0,0)" stroke-width="22" stroke-linejoin="miter" d="M 4155,7227 L 4155,7120"/>
    </g>
   </g>
   <g class="com.sun.star.drawing.LineShape">
    <g id="id64">
     <rect class="BoundingBox" stroke="none" fill="none" x="4220" y="7142" width="23" height="109"/>
     <path fill="none" stroke="rgb(0,0,0)" stroke-width="22" stroke-linejoin="miter" d="M 4231,7250 L 4231,7142"/>
    </g>
   </g>
   <g class="com.sun.star.drawing.LineShape">
    <g id="id65">
     <rect class="BoundingBox" stroke="none" fill="none" x="4297" y="7165" width="23" height="162"/>
     <path fill="none" stroke="rgb(0,0,0)" stroke-width="22" stroke-linejoin="miter" d="M 4308,7325 L 4308,7165"/>
    </g>
   </g>
   <g class="com.sun.star.drawing.LineShape">
    <g id="id66">
     <rect class="BoundingBox" stroke="none" fill="none" x="4373" y="7187" width="23" height="109"/>
     <path fill="none" stroke="rgb(0,0,0)" stroke-width="22" stroke-linejoin="miter" d="M 4384,7295 L 4384,7187"/>
    </g>
   </g>
   <g class="com.sun.star.drawing.LineShape">
    <g id="id67">
     <rect class="BoundingBox" stroke="none" fill="none" x="4449" y="7210" width="23" height="109"/>
     <path fill="none" stroke="rgb(0,0,0)" stroke-width="22" stroke-linejoin="miter" d="M 4460,7318 L 4460,7210"/>
    </g>
   </g>
   <g class="com.sun.star.drawing.LineShape">
    <g id="id68">
     <rect class="BoundingBox" stroke="none" fill="none" x="4525" y="7233" width="23" height="108"/>
     <path fill="none" stroke="rgb(0,0,0)" stroke-width="22" stroke-linejoin="miter" d="M 4536,7340 L 4536,7233"/>
    </g>
   </g>
   <g class="com.sun.star.drawing.LineShape">
    <g id="id69">
     <rect class="BoundingBox" stroke="none" fill="none" x="4602" y="7254" width="23" height="110"/>
     <path fill="none" stroke="rgb(0,0,0)" stroke-width="22" stroke-linejoin="miter" d="M 4613,7363 L 4613,7255"/>
    </g>
   </g>
   <g class="com.sun.star.drawing.LineShape">
    <g id="id70">
     <rect class="BoundingBox" stroke="none" fill="none" x="4678" y="7278" width="23" height="161"/>
     <path fill="none" stroke="rgb(0,0,0)" stroke-width="22" stroke-linejoin="miter" d="M 4689,7438 L 4689,7278"/>
    </g>
   </g>
   <g class="com.sun.star.drawing.LineShape">
    <g id="id71">
     <rect class="BoundingBox" stroke="none" fill="none" x="4240" y="7726" width="45" height="476"/>
     <path fill="none" stroke="rgb(0,0,0)" stroke-width="44" stroke-linejoin="round" stroke-linecap="round" d="M 4262,7748 L 4262,8179"/>
    </g>
   </g>
   <g class="com.sun.star.drawing.LineShape">
    <g id="id72">
     <rect class="BoundingBox" stroke="none" fill="none" x="4095" y="8118" width="321" height="132"/>
     <path fill="none" stroke="rgb(0,0,0)" stroke-width="44" stroke-linejoin="round" stroke-linecap="round" d="M 4117,8140 L 4393,8227"/>
    </g>
   </g>
   <g class="com.sun.star.drawing.PolyPolygonShape">
    <g id="id73">
     <rect class="BoundingBox" stroke="none" fill="none" x="3618" y="6389" width="1330" height="1596"/>
     <path fill="none" stroke="rgb(0,0,0)" stroke-width="44" stroke-linejoin="round" stroke-linecap="round" d="M 4919,7962 L 3640,7547 3646,6411 4925,6827 4919,7962 Z"/>
    </g>
   </g>
   <g class="com.sun.star.drawing.PolyPolygonShape">
    <g id="id74">
     <rect class="BoundingBox" stroke="none" fill="none" x="3723" y="6862" width="61" height="40"/>
     <path fill="rgb(0,0,0)" stroke="none" d="M 3723,6883 L 3723,6863 3783,6881 3783,6901 3723,6883 Z"/>
    </g>
   </g>
   <g class="com.sun.star.drawing.ClosedBezierShape">
    <g id="id75">
     <rect class="BoundingBox" stroke="none" fill="none" x="3813" y="6812" width="60" height="164"/>
     <path fill="rgb(0,0,0)" stroke="none" d="M 3872,6975 L 3853,6969 3853,6846 C 3848,6849 3842,6852 3834,6854 3827,6856 3819,6857 3813,6858 L 3813,6839 C 3825,6837 3834,6834 3842,6829 3850,6823 3856,6818 3860,6812 L 3872,6816 3872,6975 Z"/>
    </g>
   </g>
   <g class="com.sun.star.drawing.ClosedBezierShape">
    <g id="id76">
     <rect class="BoundingBox" stroke="none" fill="none" x="3921" y="6843" width="104" height="169"/>
     <path fill="rgb(0,0,0)" stroke="none" d="M 3921,6911 C 3921,6892 3923,6878 3927,6868 3930,6857 3936,6850 3944,6846 3951,6842 3962,6842 3973,6846 3982,6848 3989,6852 3995,6857 4002,6863 4007,6869 4011,6877 4015,6884 4019,6893 4021,6903 4023,6913 4024,6926 4024,6941 4024,6961 4023,6975 4019,6986 4015,6996 4009,7003 4002,7007 3994,7011 3985,7011 3973,7008 3958,7003 3945,6994 3936,6981 3926,6965 3921,6941 3921,6911 Z M 3941,6917 C 3941,6943 3944,6962 3950,6973 3956,6983 3964,6989 3973,6992 3982,6995 3989,6992 3995,6986 4001,6979 4004,6963 4004,6936 4004,6910 4002,6892 3995,6881 3990,6871 3982,6864 3973,6862 3964,6859 3956,6861 3951,6867 3944,6874 3941,6891 3941,6917 Z"/>
    </g>
   </g>
   <g class="com.sun.star.drawing.ClosedBezierShape">
    <g id="id77">
     <rect class="BoundingBox" stroke="none" fill="none" x="4260" y="6943" width="105" height="169"/>
     <path fill="rgb(0,0,0)" stroke="none" d="M 4260,7012 C 4260,6994 4262,6979 4267,6969 4271,6959 4276,6951 4284,6947 4291,6943 4301,6943 4312,6946 4321,6949 4328,6952 4335,6959 4341,6964 4346,6971 4350,6978 4354,6986 4358,6995 4360,7005 4362,7014 4364,7027 4364,7043 4364,7061 4362,7076 4358,7086 4354,7096 4348,7103 4341,7107 4333,7111 4324,7112 4312,7108 4297,7104 4285,7095 4277,7081 4266,7065 4260,7042 4260,7012 Z M 4281,7019 C 4281,7045 4284,7063 4290,7073 4296,7083 4303,7090 4312,7092 4321,7095 4329,7093 4335,7086 4341,7079 4344,7063 4344,7037 4344,7011 4341,6993 4335,6983 4329,6972 4321,6966 4312,6963 4303,6961 4296,6962 4291,6968 4284,6976 4281,6993 4281,7019 Z"/>
    </g>
   </g>
   <g class="com.sun.star.drawing.PolyPolygonShape">
    <g id="id78">
     <rect class="BoundingBox" stroke="none" fill="none" x="4499" y="7031" width="108" height="112"/>
     <path fill="rgb(0,0,0)" stroke="none" d="M 4544,7137 L 4544,7094 4500,7080 4500,7061 4544,7074 4544,7031 4562,7036 4562,7080 4606,7094 4606,7112 4562,7099 4562,7142 4544,7137 Z"/>
    </g>
   </g>
   <g class="com.sun.star.drawing.ClosedBezierShape">
    <g id="id79">
     <rect class="BoundingBox" stroke="none" fill="none" x="4640" y="7045" width="60" height="165"/>
     <path fill="rgb(0,0,0)" stroke="none" d="M 4699,7208 L 4679,7202 4679,7078 C 4674,7081 4668,7083 4660,7085 4653,7088 4646,7089 4640,7089 L 4640,7071 C 4651,7069 4660,7065 4668,7061 4677,7056 4682,7050 4686,7045 L 4699,7048 4699,7208 Z"/>
    </g>
   </g>
   <g class="com.sun.star.drawing.ClosedBezierShape">
    <g id="id80">
     <rect class="BoundingBox" stroke="none" fill="none" x="4748" y="7076" width="105" height="169"/>
     <path fill="rgb(0,0,0)" stroke="none" d="M 4748,7145 C 4748,7126 4750,7111 4754,7100 4758,7090 4763,7083 4771,7079 4779,7075 4789,7075 4800,7078 4809,7081 4816,7085 4823,7090 4829,7095 4834,7102 4838,7109 4842,7117 4846,7127 4848,7137 4850,7147 4852,7159 4852,7175 4852,7194 4850,7208 4846,7218 4842,7229 4836,7236 4829,7240 4821,7244 4812,7244 4800,7240 4785,7236 4772,7227 4763,7214 4753,7197 4748,7174 4748,7145 Z M 4768,7151 C 4768,7177 4771,7195 4778,7205 4784,7215 4791,7222 4800,7225 4809,7227 4816,7225 4823,7218 4829,7212 4832,7195 4832,7169 4832,7143 4829,7125 4823,7114 4817,7104 4809,7097 4800,7094 4791,7092 4784,7093 4779,7099 4771,7107 4768,7125 4768,7151 Z"/>
    </g>
   </g>
   <g class="com.sun.star.drawing.LineShape">
    <g id="id81">
     <rect class="BoundingBox" stroke="none" fill="none" x="12478" y="3249" width="23" height="2916"/>
     <path fill="none" stroke="rgb(0,0,0)" stroke-width="22" stroke-linejoin="miter" d="M 12489,6164 L 12489,3249"/>
    </g>
   </g>
   <g class="com.sun.star.drawing.ClosedBezierShape">
    <g id="id82">
     <rect class="BoundingBox" stroke="none" fill="none" x="12407" y="3051" width="165" height="271"/>
     <path fill="rgb(0,0,0)" stroke="none" d="M 12489,3272 L 12409,3321 12407,3318 12459,3189 C 12469,3143 12479,3097 12489,3052 12499,3097 12509,3143 12518,3189 L 12571,3318 12569,3321 12489,3272 Z"/>
    </g>
   </g>
   <g class="com.sun.star.drawing.ClosedBezierShape">
    <g id="id83">
     <rect class="BoundingBox" stroke="none" fill="none" x="12407" y="6094" width="165" height="269"/>
     <path fill="rgb(0,0,0)" stroke="none" d="M 12489,6142 L 12569,6094 12571,6096 12518,6226 C 12509,6271 12499,6316 12489,6362 12479,6316 12469,6271 12459,6226 L 12407,6096 12409,6094 12489,6142 Z"/>
    </g>
   </g>
   <g class="com.sun.star.drawing.PolyPolygonShape">
    <g id="id84">
     <rect class="BoundingBox" stroke="none" fill="none" x="10206" y="7454" width="426" height="202"/>
     <path fill="rgb(0,0,0)" stroke="none" d="M 10207,7655 L 10631,7454 10207,7655 Z"/>
    </g>
   </g>
   <g class="com.sun.star.drawing.LineShape">
    <g id="id85">
     <rect class="BoundingBox" stroke="none" fill="none" x="10202" y="7444" width="435" height="222"/>
     <path fill="none" stroke="rgb(0,0,0)" stroke-width="22" stroke-linejoin="miter" d="M 10207,7655 L 10631,7454"/>
    </g>
   </g>
   <g class="com.sun.star.drawing.ClosedBezierShape">
    <g id="id86">
     <rect class="BoundingBox" stroke="none" fill="none" x="10532" y="7371" width="278" height="188"/>
     <path fill="rgb(0,0,0)" stroke="none" d="M 10609,7464 L 10532,7413 10534,7410 10673,7401 C 10719,7391 10764,7381 10809,7371 10772,7399 10736,7427 10698,7455 L 10603,7558 10600,7558 10609,7464 Z"/>
    </g>
   </g>
   <g class="com.sun.star.drawing.PolyPolygonShape">
    <g id="id87">
     <rect class="BoundingBox" stroke="none" fill="none" x="6733" y="7648" width="973" height="460"/>
     <path fill="rgb(0,0,0)" stroke="none" d="M 6733,8107 L 7705,7648 6733,8107 Z"/>
    </g>
   </g>
   <g class="com.sun.star.drawing.LineShape">
    <g id="id88">
     <rect class="BoundingBox" stroke="none" fill="none" x="6728" y="7638" width="983" height="480"/>
     <path fill="none" stroke="rgb(0,0,0)" stroke-width="22" stroke-linejoin="miter" d="M 6733,8107 L 7705,7648"/>
    </g>
   </g>
   <g class="com.sun.star.drawing.ClosedBezierShape">
    <g id="id89">
     <rect class="BoundingBox" stroke="none" fill="none" x="7606" y="7564" width="278" height="188"/>
     <path fill="rgb(0,0,0)" stroke="none" d="M 7684,7657 L 7606,7606 7608,7603 7748,7595 C 7793,7584 7838,7574 7883,7564 7847,7592 7810,7620 7773,7649 L 7677,7751 7674,7751 7684,7657 Z"/>
    </g>
   </g>
   <g class="com.sun.star.drawing.ClosedBezierShape">
    <g id="id90">
     <rect class="BoundingBox" stroke="none" fill="none" x="6678" y="8051" width="112" height="112"/>
     <path fill="rgb(0,0,0)" stroke="none" d="M 6778,8107 C 6778,8132 6758,8151 6734,8151 6709,8151 6689,8132 6689,8107 6689,8082 6709,8062 6734,8062 6758,8062 6778,8082 6778,8107 Z"/>
     <path fill="none" stroke="rgb(0,0,0)" stroke-width="22" stroke-linejoin="miter" d="M 6778,8107 C 6778,8132 6758,8151 6734,8151 6709,8151 6689,8132 6689,8107 6689,8082 6709,8062 6734,8062 6758,8062 6778,8082 6778,8107 Z"/>
    </g>
   </g>
   <g class="com.sun.star.drawing.ClosedBezierShape">
    <g id="id91">
     <rect class="BoundingBox" stroke="none" fill="none" x="6612" y="8265" width="323" height="223"/>
     <path fill="rgb(0,0,0)" stroke="none" d="M 6710,8265 L 6679,8372 C 6693,8347 6704,8328 6714,8315 6729,8296 6744,8281 6759,8273 6767,8268 6776,8265 6785,8265 6793,8265 6800,8268 6805,8273 6810,8278 6813,8285 6813,8293 6813,8300 6811,8310 6807,8323 L 6789,8382 C 6816,8334 6842,8300 6867,8281 6880,8270 6895,8265 6908,8265 6916,8265 6922,8268 6927,8273 6932,8279 6934,8287 6934,8298 6934,8307 6933,8317 6929,8327 L 6900,8418 C 6894,8439 6890,8450 6890,8452 6890,8454 6891,8456 6892,8458 6893,8459 6894,8459 6895,8459 6897,8459 6899,8458 6903,8455 6911,8448 6918,8439 6925,8427 L 6933,8433 C 6929,8439 6922,8447 6913,8458 6903,8469 6895,8476 6888,8480 6881,8484 6874,8486 6869,8486 6863,8486 6859,8484 6856,8480 6852,8476 6850,8472 6850,8466 6850,8459 6854,8443 6861,8419 L 6886,8344 C 6893,8326 6896,8316 6896,8314 6897,8311 6897,8309 6897,8306 6897,8302 6896,8299 6894,8297 6892,8294 6890,8293 6886,8293 6879,8293 6872,8297 6864,8303 6840,8323 6818,8351 6797,8388 6784,8411 6771,8443 6759,8480 L 6724,8480 6767,8337 C 6772,8321 6775,8311 6775,8306 6775,8301 6774,8298 6772,8296 6770,8294 6768,8293 6765,8293 6760,8293 6754,8295 6748,8299 6739,8305 6726,8318 6711,8338 6696,8358 6684,8378 6676,8396 6672,8405 6662,8433 6647,8480 L 6612,8480 6656,8326 6662,8306 C 6663,8303 6664,8301 6664,8299 6664,8296 6662,8293 6659,8290 6656,8287 6651,8286 6647,8286 6645,8286 6639,8286 6629,8288 L 6627,8280 6710,8265 Z"/>
    </g>
   </g>
   <g class="com.sun.star.drawing.ClosedBezierShape">
    <g id="id92">
     <rect class="BoundingBox" stroke="none" fill="none" x="7324" y="7394" width="223" height="237"/>
     <path fill="rgb(0,0,0)" stroke="none" d="M 7324,7454 L 7343,7399 C 7349,7396 7356,7395 7363,7395 7368,7395 7378,7396 7393,7397 7406,7399 7415,7399 7421,7399 7431,7399 7440,7398 7448,7395 L 7452,7402 C 7408,7456 7386,7506 7386,7554 7386,7569 7390,7582 7396,7591 7402,7601 7412,7605 7424,7605 7440,7605 7455,7598 7469,7582 7482,7567 7493,7547 7502,7522 7510,7498 7515,7476 7515,7459 7515,7438 7508,7427 7494,7427 7490,7427 7486,7428 7482,7430 L 7480,7430 7477,7425 7477,7422 C 7482,7418 7488,7411 7494,7404 L 7502,7396 C 7504,7395 7508,7394 7511,7394 7522,7394 7530,7398 7536,7406 7542,7414 7545,7426 7545,7439 7545,7466 7537,7495 7521,7527 7505,7558 7486,7584 7464,7602 7442,7621 7422,7630 7405,7630 7391,7630 7378,7625 7367,7614 7357,7602 7351,7587 7351,7568 7351,7546 7356,7524 7367,7502 7377,7480 7396,7454 7424,7423 7420,7424 7409,7424 7389,7424 L 7379,7424 C 7369,7424 7359,7425 7350,7427 7347,7431 7342,7440 7334,7455 L 7331,7456 7325,7456 7324,7454 Z"/>
    </g>
   </g>
   <g class="com.sun.star.drawing.PolyPolygonShape">
    <g id="id93">
     <rect class="BoundingBox" stroke="none" fill="none" x="10360" y="7618" width="286" height="330"/>
     <path fill="rgb(0,0,0)" stroke="none" d="M 10645,7947 L 10360,7947 10510,7618 10645,7947 Z M 10589,7927 L 10495,7697 10390,7927 10589,7927 Z"/>
    </g>
   </g>
   <g class="com.sun.star.drawing.ClosedBezierShape">
    <g id="id94">
     <rect class="BoundingBox" stroke="none" fill="none" x="10633" y="7732" width="231" height="221"/>
     <path fill="rgb(0,0,0)" stroke="none" d="M 10735,7732 C 10743,7740 10749,7748 10753,7756 10756,7762 10760,7778 10767,7802 L 10787,7770 C 10793,7762 10800,7755 10808,7748 10815,7741 10822,7737 10828,7734 10832,7732 10836,7732 10841,7732 10848,7732 10853,7733 10857,7737 10861,7741 10863,7745 10863,7750 10863,7756 10862,7761 10859,7763 10855,7767 10850,7769 10844,7769 10841,7769 10837,7768 10834,7767 10826,7764 10821,7763 10819,7763 10815,7763 10810,7765 10805,7769 10795,7779 10784,7794 10770,7818 L 10790,7899 C 10793,7911 10795,7919 10797,7921 10799,7924 10801,7925 10803,7925 10807,7925 10811,7923 10815,7920 10824,7912 10831,7903 10837,7891 L 10846,7895 C 10836,7914 10823,7929 10808,7942 10799,7949 10792,7952 10786,7952 10777,7952 10770,7947 10765,7937 10761,7931 10755,7905 10744,7858 10720,7901 10700,7928 10685,7940 10676,7948 10666,7952 10657,7952 10651,7952 10645,7950 10640,7945 10635,7942 10633,7937 10633,7932 10633,7926 10635,7922 10640,7919 10643,7915 10647,7914 10652,7914 10657,7914 10663,7916 10668,7921 10672,7925 10676,7927 10678,7927 10680,7927 10682,7925 10685,7923 10692,7917 10702,7904 10715,7884 10728,7864 10736,7850 10740,7841 10731,7803 10725,7782 10725,7780 10721,7769 10716,7762 10710,7757 10705,7753 10696,7751 10685,7751 10681,7751 10677,7751 10672,7751 L 10672,7743 10735,7732 Z"/>
    </g>
   </g>
   <g class="com.sun.star.drawing.ClosedBezierShape">
    <g id="id95">
     <rect class="BoundingBox" stroke="none" fill="none" x="12075" y="4696" width="324" height="272"/>
     <path fill="rgb(0,0,0)" stroke="none" d="M 12398,4728 L 12398,4967 12390,4964 C 12389,4951 12388,4943 12387,4938 12384,4932 12380,4927 12375,4924 12368,4919 12355,4914 12336,4908 L 12139,4852 C 12123,4847 12111,4845 12104,4845 12098,4845 12093,4847 12090,4852 12086,4856 12085,4864 12085,4876 12085,4879 12085,4881 12084,4882 L 12076,4880 12076,4748 12084,4750 C 12084,4766 12086,4776 12089,4782 12092,4788 12096,4793 12103,4797 12107,4800 12120,4805 12142,4811 L 12341,4868 C 12354,4872 12363,4875 12368,4875 12371,4875 12374,4872 12378,4868 12380,4865 12381,4859 12381,4849 L 12381,4818 C 12381,4795 12378,4777 12372,4763 12368,4752 12362,4743 12353,4735 12348,4730 12337,4723 12318,4711 L 12306,4705 12306,4696 12398,4728 Z"/>
    </g>
   </g>
   <g class="com.sun.star.drawing.ClosedBezierShape">
    <g id="id96">
     <rect class="BoundingBox" stroke="none" fill="none" x="3687" y="5917" width="290" height="336"/>
     <path fill="rgb(0,0,0)" stroke="none" d="M 3705,5917 L 3714,5917 C 3720,5928 3726,5934 3732,5934 3734,5934 3739,5933 3745,5930 3770,5921 3793,5917 3814,5917 3843,5917 3870,5924 3893,5938 3916,5952 3935,5972 3951,5997 3967,6023 3976,6052 3976,6086 3976,6133 3960,6172 3930,6204 3900,6236 3862,6252 3814,6252 3760,6252 3717,6228 3687,6179 L 3693,6174 C 3723,6214 3760,6234 3805,6234 3828,6234 3847,6229 3863,6218 3880,6207 3893,6191 3904,6169 3916,6146 3921,6120 3921,6090 L 3796,6090 3796,6073 3921,6073 C 3918,6024 3906,5989 3885,5967 3864,5944 3840,5933 3814,5933 3792,5933 3770,5942 3748,5959 3726,5976 3713,5998 3709,6026 L 3700,6026 3705,5917 Z"/>
    </g>
   </g>
   <g class="com.sun.star.drawing.ClosedBezierShape">
    <g id="id97">
     <rect class="BoundingBox" stroke="none" fill="none" x="7369" y="5566" width="318" height="327"/>
     <path fill="rgb(0,0,0)" stroke="none" d="M 7594,5583 L 7495,5583 7495,5673 C 7495,5764 7487,5824 7471,5851 7456,5878 7434,5892 7407,5892 7394,5892 7385,5889 7379,5883 7372,5877 7369,5871 7369,5863 7369,5857 7371,5852 7375,5848 7380,5844 7385,5842 7390,5842 7395,5842 7401,5844 7408,5849 7415,5854 7422,5857 7427,5857 7441,5857 7452,5845 7461,5822 7470,5800 7474,5755 7474,5692 L 7474,5624 C 7474,5603 7471,5590 7466,5584 7460,5579 7448,5575 7428,5575 L 7428,5566 7686,5566 7686,5575 C 7666,5575 7653,5579 7648,5584 7642,5590 7639,5603 7639,5624 L 7639,5829 C 7639,5850 7642,5864 7648,5869 7653,5875 7666,5878 7686,5879 L 7686,5888 7548,5888 7548,5879 C 7568,5878 7580,5875 7586,5869 7591,5864 7594,5850 7594,5829 L 7594,5583 Z"/>
    </g>
   </g>
   <g class="com.sun.star.drawing.ClosedBezierShape">
    <g id="id98">
     <rect class="BoundingBox" stroke="none" fill="none" x="6533" y="5192" width="214" height="338"/>
     <path fill="rgb(0,0,0)" stroke="none" d="M 6547,5286 L 6547,5193 6556,5193 C 6559,5204 6564,5210 6575,5210 6578,5210 6585,5207 6597,5203 6614,5197 6633,5193 6653,5193 6679,5193 6700,5201 6716,5217 6732,5233 6740,5252 6740,5273 6740,5293 6734,5310 6722,5323 6710,5337 6694,5347 6674,5354 6696,5358 6713,5367 6726,5383 6740,5399 6746,5418 6746,5439 6746,5466 6736,5487 6716,5504 6695,5521 6670,5529 6639,5529 6594,5529 6558,5507 6533,5465 L 6542,5459 C 6550,5472 6561,5484 6577,5493 6593,5503 6609,5508 6626,5508 6647,5508 6663,5501 6675,5487 6686,5473 6692,5456 6692,5436 6692,5415 6685,5397 6670,5383 6656,5369 6632,5362 6598,5362 L 6598,5346 C 6622,5346 6640,5343 6652,5338 6665,5333 6674,5325 6682,5314 6690,5302 6693,5288 6693,5273 6693,5256 6688,5242 6678,5231 6667,5220 6653,5215 6635,5215 6612,5215 6595,5221 6582,5234 6569,5247 6560,5265 6556,5286 L 6547,5286 Z"/>
    </g>
   </g>
   <g class="com.sun.star.drawing.ClosedBezierShape">
    <g id="id99">
     <rect class="BoundingBox" stroke="none" fill="none" x="12215" y="7051" width="315" height="338"/>
     <path fill="rgb(0,0,0)" stroke="none" d="M 12375,7052 C 12417,7052 12453,7068 12483,7099 12514,7131 12529,7170 12529,7218 12529,7266 12514,7308 12483,7340 12452,7372 12415,7388 12371,7388 12327,7388 12290,7372 12260,7341 12230,7310 12215,7268 12215,7218 12215,7167 12232,7126 12267,7094 12297,7066 12333,7052 12375,7052 Z M 12370,7069 C 12341,7069 12319,7079 12301,7101 12280,7127 12269,7166 12269,7217 12269,7270 12280,7311 12302,7339 12320,7361 12342,7371 12370,7371 12401,7371 12426,7360 12445,7336 12465,7312 12475,7274 12475,7224 12475,7169 12464,7128 12442,7101 12425,7079 12401,7069 12370,7069 Z"/>
    </g>
   </g>
  </g>
 </g>
</svg>