<?xml version="1.0" encoding="utf-8" standalone="no"?>
<!DOCTYPE svg PUBLIC "-//W3C//DTD SVG 1.1//EN"
  "http://www.w3.org/Graphics/SVG/1.1/DTD/svg11.dtd">
<svg xmlns:xlink="http://www.w3.org/1999/xlink" width="460.8pt" height="345.6pt" viewBox="0 0 460.8 345.6" xmlns="http://www.w3.org/2000/svg" version="1.1">
 <metadata>
  <rdf:RDF xmlns:dc="http://purl.org/dc/elements/1.1/" xmlns:cc="http://creativecommons.org/ns#" xmlns:rdf="http://www.w3.org/1999/02/22-rdf-syntax-ns#">
   <cc:Work>
    <dc:type rdf:resource="http://purl.org/dc/dcmitype/StillImage"/>
    <dc:date>1980-01-01T00:00:00+00:00</dc:date>
    <dc:format>image/svg+xml</dc:format>
    <dc:creator>
     <cc:Agent>
      <dc:title>Matplotlib v3.7.0, https://matplotlib.org/</dc:title>
     </cc:Agent>
    </dc:creator>
   </cc:Work>
  </rdf:RDF>
 </metadata>
 <defs>
  <style type="text/css">*{stroke-linejoin: round; stroke-linecap: butt}</style>
 </defs>
 <g id="figure_1">
  <g id="patch_1">
   <path d="M 0 345.6 
L 460.8 345.6 
L 460.8 0 
L 0 0 
z
" style="fill: #ffffff"/>
  </g>
  <g id="axes_1">
   <g id="patch_2">
    <path d="M 57.6 307.584 
L 414.72 307.584 
L 414.72 41.472 
L 57.6 41.472 
z
" style="fill: #ffffff"/>
   </g>
   <g id="matplotlib.axis_1">
    <g id="xtick_1">
     <g id="line2d_1">
      <path d="M 73.029127 307.584 
L 73.029127 41.472 
" clip-path="url(#p6359cc8c49)" style="fill: none; stroke: #b0b0b0; stroke-width: 0.8; stroke-linecap: square"/>
     </g>
     <g id="line2d_2">
      <defs>
       <path id="m930dc01441" d="M 0 0 
L 0 3.5 
" style="stroke: #000000; stroke-width: 0.8"/>
      </defs>
      <g>
       <use xlink:href="#m930dc01441" x="73.029127" y="307.584" style="stroke: #000000; stroke-width: 0.8"/>
      </g>
     </g>
     <g id="text_1">
      <!-- 0 -->
      <g transform="translate(68.575377 325.221812) scale(0.14 -0.14)">
       <defs>
        <path id="DejaVuSans-30" d="M 2034 4250 
Q 1547 4250 1301 3770 
Q 1056 3291 1056 2328 
Q 1056 1369 1301 889 
Q 1547 409 2034 409 
Q 2525 409 2770 889 
Q 3016 1369 3016 2328 
Q 3016 3291 2770 3770 
Q 2525 4250 2034 4250 
z
M 2034 4750 
Q 2819 4750 3233 4129 
Q 3647 3509 3647 2328 
Q 3647 1150 3233 529 
Q 2819 -91 2034 -91 
Q 1250 -91 836 529 
Q 422 1150 422 2328 
Q 422 3509 836 4129 
Q 1250 4750 2034 4750 
z
" transform="scale(0.015625)"/>
       </defs>
       <use xlink:href="#DejaVuSans-30"/>
      </g>
     </g>
    </g>
    <g id="xtick_2">
     <g id="line2d_3">
      <path d="M 153.389163 307.584 
L 153.389163 41.472 
" clip-path="url(#p6359cc8c49)" style="fill: none; stroke: #b0b0b0; stroke-width: 0.8; stroke-linecap: square"/>
     </g>
     <g id="line2d_4">
      <g>
       <use xlink:href="#m930dc01441" x="153.389163" y="307.584" style="stroke: #000000; stroke-width: 0.8"/>
      </g>
     </g>
     <g id="text_2">
      <!-- 5 -->
      <g transform="translate(148.935413 325.221812) scale(0.14 -0.14)">
       <defs>
        <path id="DejaVuSans-35" d="M 691 4666 
L 3169 4666 
L 3169 4134 
L 1269 4134 
L 1269 2991 
Q 1406 3038 1543 3061 
Q 1681 3084 1819 3084 
Q 2600 3084 3056 2656 
Q 3513 2228 3513 1497 
Q 3513 744 3044 326 
Q 2575 -91 1722 -91 
Q 1428 -91 1123 -41 
Q 819 9 494 109 
L 494 744 
Q 775 591 1075 516 
Q 1375 441 1709 441 
Q 2250 441 2565 725 
Q 2881 1009 2881 1497 
Q 2881 1984 2565 2268 
Q 2250 2553 1709 2553 
Q 1456 2553 1204 2497 
Q 953 2441 691 2322 
L 691 4666 
z
" transform="scale(0.015625)"/>
       </defs>
       <use xlink:href="#DejaVuSans-35"/>
      </g>
     </g>
    </g>
    <g id="xtick_3">
     <g id="line2d_5">
      <path d="M 233.749199 307.584 
L 233.749199 41.472 
" clip-path="url(#p6359cc8c49)" style="fill: none; stroke: #b0b0b0; stroke-width: 0.8; stroke-linecap: square"/>
     </g>
     <g id="line2d_6">
      <g>
       <use xlink:href="#m930dc01441" x="233.749199" y="307.584" style="stroke: #000000; stroke-width: 0.8"/>
      </g>
     </g>
     <g id="text_3">
      <!-- 10 -->
      <g transform="translate(224.841699 325.221812) scale(0.14 -0.14)">
       <defs>
        <path id="DejaVuSans-31" d="M 794 531 
L 1825 531 
L 1825 4091 
L 703 3866 
L 703 4441 
L 1819 4666 
L 2450 4666 
L 2450 531 
L 3481 531 
L 3481 0 
L 794 0 
L 794 531 
z
" transform="scale(0.015625)"/>
       </defs>
       <use xlink:href="#DejaVuSans-31"/>
       <use xlink:href="#DejaVuSans-30" x="63.623047"/>
      </g>
     </g>
    </g>
    <g id="xtick_4">
     <g id="line2d_7">
      <path d="M 314.109235 307.584 
L 314.109235 41.472 
" clip-path="url(#p6359cc8c49)" style="fill: none; stroke: #b0b0b0; stroke-width: 0.8; stroke-linecap: square"/>
     </g>
     <g id="line2d_8">
      <g>
       <use xlink:href="#m930dc01441" x="314.109235" y="307.584" style="stroke: #000000; stroke-width: 0.8"/>
      </g>
     </g>
     <g id="text_4">
      <!-- 15 -->
      <g transform="translate(305.201735 325.221812) scale(0.14 -0.14)">
       <use xlink:href="#DejaVuSans-31"/>
       <use xlink:href="#DejaVuSans-35" x="63.623047"/>
      </g>
     </g>
    </g>
    <g id="xtick_5">
     <g id="line2d_9">
      <path d="M 394.469271 307.584 
L 394.469271 41.472 
" clip-path="url(#p6359cc8c49)" style="fill: none; stroke: #b0b0b0; stroke-width: 0.8; stroke-linecap: square"/>
     </g>
     <g id="line2d_10">
      <g>
       <use xlink:href="#m930dc01441" x="394.469271" y="307.584" style="stroke: #000000; stroke-width: 0.8"/>
      </g>
     </g>
     <g id="text_5">
      <!-- 20 -->
      <g transform="translate(385.561771 325.221812) scale(0.14 -0.14)">
       <defs>
        <path id="DejaVuSans-32" d="M 1228 531 
L 3431 531 
L 3431 0 
L 469 0 
L 469 531 
Q 828 903 1448 1529 
Q 2069 2156 2228 2338 
Q 2531 2678 2651 2914 
Q 2772 3150 2772 3378 
Q 2772 3750 2511 3984 
Q 2250 4219 1831 4219 
Q 1534 4219 1204 4116 
Q 875 4013 500 3803 
L 500 4441 
Q 881 4594 1212 4672 
Q 1544 4750 1819 4750 
Q 2544 4750 2975 4387 
Q 3406 4025 3406 3419 
Q 3406 3131 3298 2873 
Q 3191 2616 2906 2266 
Q 2828 2175 2409 1742 
Q 1991 1309 1228 531 
z
" transform="scale(0.015625)"/>
       </defs>
       <use xlink:href="#DejaVuSans-32"/>
       <use xlink:href="#DejaVuSans-30" x="63.623047"/>
      </g>
     </g>
    </g>
    <g id="text_6">
     <!-- $d^2, \mathrm{см}^{2}$ -->
     <g transform="translate(211.73 343.641812) scale(0.14 -0.14)">
      <defs>
       <path id="DejaVuSans-Oblique-64" d="M 2675 525 
Q 2444 222 2128 65 
Q 1813 -91 1428 -91 
Q 903 -91 598 267 
Q 294 625 294 1247 
Q 294 1766 478 2236 
Q 663 2706 1013 3078 
Q 1244 3325 1534 3454 
Q 1825 3584 2144 3584 
Q 2481 3584 2739 3421 
Q 2997 3259 3138 2956 
L 3513 4863 
L 4091 4863 
L 3144 0 
L 2566 0 
L 2675 525 
z
M 891 1350 
Q 891 897 1095 644 
Q 1300 391 1663 391 
Q 1931 391 2161 520 
Q 2391 650 2566 903 
Q 2750 1166 2856 1509 
Q 2963 1853 2963 2188 
Q 2963 2622 2758 2865 
Q 2553 3109 2194 3109 
Q 1922 3109 1687 2981 
Q 1453 2853 1288 2613 
Q 1106 2353 998 2009 
Q 891 1666 891 1350 
z
" transform="scale(0.015625)"/>
       <path id="DejaVuSans-2c" d="M 750 794 
L 1409 794 
L 1409 256 
L 897 -744 
L 494 -744 
L 750 256 
L 750 794 
z
" transform="scale(0.015625)"/>
       <path id="DejaVuSans-441" d="M 3122 3366 
L 3122 2828 
Q 2878 2963 2633 3030 
Q 2388 3097 2138 3097 
Q 1578 3097 1268 2742 
Q 959 2388 959 1747 
Q 959 1106 1268 751 
Q 1578 397 2138 397 
Q 2388 397 2633 464 
Q 2878 531 3122 666 
L 3122 134 
Q 2881 22 2623 -34 
Q 2366 -91 2075 -91 
Q 1284 -91 818 406 
Q 353 903 353 1747 
Q 353 2603 823 3093 
Q 1294 3584 2113 3584 
Q 2378 3584 2631 3529 
Q 2884 3475 3122 3366 
z
" transform="scale(0.015625)"/>
       <path id="DejaVuSans-43c" d="M 581 3500 
L 1422 3500 
L 2416 1156 
L 3413 3500 
L 4247 3500 
L 4247 0 
L 3669 0 
L 3669 2950 
L 2703 672 
L 2128 672 
L 1159 2950 
L 1159 0 
L 581 0 
L 581 3500 
z
" transform="scale(0.015625)"/>
      </defs>
      <use xlink:href="#DejaVuSans-Oblique-64" transform="translate(0 0.765625)"/>
      <use xlink:href="#DejaVuSans-32" transform="translate(70.924271 39.046875) scale(0.7)"/>
      <use xlink:href="#DejaVuSans-2c" transform="translate(118.194779 0.765625)"/>
      <use xlink:href="#DejaVuSans-441" transform="translate(169.46431 0.765625)"/>
      <use xlink:href="#DejaVuSans-43c" transform="translate(224.444779 0.765625)"/>
      <use xlink:href="#DejaVuSans-32" transform="translate(300.841263 39.046875) scale(0.7)"/>
     </g>
    </g>
   </g>
   <g id="matplotlib.axis_2">
    <g id="ytick_1">
     <g id="line2d_11">
      <path d="M 57.6 278.136031 
L 414.72 278.136031 
" clip-path="url(#p6359cc8c49)" style="fill: none; stroke: #b0b0b0; stroke-width: 0.8; stroke-linecap: square"/>
     </g>
     <g id="line2d_12">
      <defs>
       <path id="m1ed8bd6087" d="M 0 0 
L -3.5 0 
" style="stroke: #000000; stroke-width: 0.8"/>
      </defs>
      <g>
       <use xlink:href="#m1ed8bd6087" x="57.6" y="278.136031" style="stroke: #000000; stroke-width: 0.8"/>
      </g>
     </g>
     <g id="text_7">
      <!-- 2.0 -->
      <g transform="translate(28.335625 283.454938) scale(0.14 -0.14)">
       <defs>
        <path id="DejaVuSans-2e" d="M 684 794 
L 1344 794 
L 1344 0 
L 684 0 
L 684 794 
z
" transform="scale(0.015625)"/>
       </defs>
       <use xlink:href="#DejaVuSans-32"/>
       <use xlink:href="#DejaVuSans-2e" x="63.623047"/>
       <use xlink:href="#DejaVuSans-30" x="95.410156"/>
      </g>
     </g>
    </g>
    <g id="ytick_2">
     <g id="line2d_13">
      <path d="M 57.6 241.062882 
L 414.72 241.062882 
" clip-path="url(#p6359cc8c49)" style="fill: none; stroke: #b0b0b0; stroke-width: 0.8; stroke-linecap: square"/>
     </g>
     <g id="line2d_14">
      <g>
       <use xlink:href="#m1ed8bd6087" x="57.6" y="241.062882" style="stroke: #000000; stroke-width: 0.8"/>
      </g>
     </g>
     <g id="text_8">
      <!-- 2.5 -->
      <g transform="translate(28.335625 246.381788) scale(0.14 -0.14)">
       <use xlink:href="#DejaVuSans-32"/>
       <use xlink:href="#DejaVuSans-2e" x="63.623047"/>
       <use xlink:href="#DejaVuSans-35" x="95.410156"/>
      </g>
     </g>
    </g>
    <g id="ytick_3">
     <g id="line2d_15">
      <path d="M 57.6 203.989733 
L 414.72 203.989733 
" clip-path="url(#p6359cc8c49)" style="fill: none; stroke: #b0b0b0; stroke-width: 0.8; stroke-linecap: square"/>
     </g>
     <g id="line2d_16">
      <g>
       <use xlink:href="#m1ed8bd6087" x="57.6" y="203.989733" style="stroke: #000000; stroke-width: 0.8"/>
      </g>
     </g>
     <g id="text_9">
      <!-- 3.0 -->
      <g transform="translate(28.335625 209.308639) scale(0.14 -0.14)">
       <defs>
        <path id="DejaVuSans-33" d="M 2597 2516 
Q 3050 2419 3304 2112 
Q 3559 1806 3559 1356 
Q 3559 666 3084 287 
Q 2609 -91 1734 -91 
Q 1441 -91 1130 -33 
Q 819 25 488 141 
L 488 750 
Q 750 597 1062 519 
Q 1375 441 1716 441 
Q 2309 441 2620 675 
Q 2931 909 2931 1356 
Q 2931 1769 2642 2001 
Q 2353 2234 1838 2234 
L 1294 2234 
L 1294 2753 
L 1863 2753 
Q 2328 2753 2575 2939 
Q 2822 3125 2822 3475 
Q 2822 3834 2567 4026 
Q 2313 4219 1838 4219 
Q 1578 4219 1281 4162 
Q 984 4106 628 3988 
L 628 4550 
Q 988 4650 1302 4700 
Q 1616 4750 1894 4750 
Q 2613 4750 3031 4423 
Q 3450 4097 3450 3541 
Q 3450 3153 3228 2886 
Q 3006 2619 2597 2516 
z
" transform="scale(0.015625)"/>
       </defs>
       <use xlink:href="#DejaVuSans-33"/>
       <use xlink:href="#DejaVuSans-2e" x="63.623047"/>
       <use xlink:href="#DejaVuSans-30" x="95.410156"/>
      </g>
     </g>
    </g>
    <g id="ytick_4">
     <g id="line2d_17">
      <path d="M 57.6 166.916584 
L 414.72 166.916584 
" clip-path="url(#p6359cc8c49)" style="fill: none; stroke: #b0b0b0; stroke-width: 0.8; stroke-linecap: square"/>
     </g>
     <g id="line2d_18">
      <g>
       <use xlink:href="#m1ed8bd6087" x="57.6" y="166.916584" style="stroke: #000000; stroke-width: 0.8"/>
      </g>
     </g>
     <g id="text_10">
      <!-- 3.5 -->
      <g transform="translate(28.335625 172.23549) scale(0.14 -0.14)">
       <use xlink:href="#DejaVuSans-33"/>
       <use xlink:href="#DejaVuSans-2e" x="63.623047"/>
       <use xlink:href="#DejaVuSans-35" x="95.410156"/>
      </g>
     </g>
    </g>
    <g id="ytick_5">
     <g id="line2d_19">
      <path d="M 57.6 129.843435 
L 414.72 129.843435 
" clip-path="url(#p6359cc8c49)" style="fill: none; stroke: #b0b0b0; stroke-width: 0.8; stroke-linecap: square"/>
     </g>
     <g id="line2d_20">
      <g>
       <use xlink:href="#m1ed8bd6087" x="57.6" y="129.843435" style="stroke: #000000; stroke-width: 0.8"/>
      </g>
     </g>
     <g id="text_11">
      <!-- 4.0 -->
      <g transform="translate(28.335625 135.162341) scale(0.14 -0.14)">
       <defs>
        <path id="DejaVuSans-34" d="M 2419 4116 
L 825 1625 
L 2419 1625 
L 2419 4116 
z
M 2253 4666 
L 3047 4666 
L 3047 1625 
L 3713 1625 
L 3713 1100 
L 3047 1100 
L 3047 0 
L 2419 0 
L 2419 1100 
L 313 1100 
L 313 1709 
L 2253 4666 
z
" transform="scale(0.015625)"/>
       </defs>
       <use xlink:href="#DejaVuSans-34"/>
       <use xlink:href="#DejaVuSans-2e" x="63.623047"/>
       <use xlink:href="#DejaVuSans-30" x="95.410156"/>
      </g>
     </g>
    </g>
    <g id="ytick_6">
     <g id="line2d_21">
      <path d="M 57.6 92.770286 
L 414.72 92.770286 
" clip-path="url(#p6359cc8c49)" style="fill: none; stroke: #b0b0b0; stroke-width: 0.8; stroke-linecap: square"/>
     </g>
     <g id="line2d_22">
      <g>
       <use xlink:href="#m1ed8bd6087" x="57.6" y="92.770286" style="stroke: #000000; stroke-width: 0.8"/>
      </g>
     </g>
     <g id="text_12">
      <!-- 4.5 -->
      <g transform="translate(28.335625 98.089192) scale(0.14 -0.14)">
       <use xlink:href="#DejaVuSans-34"/>
       <use xlink:href="#DejaVuSans-2e" x="63.623047"/>
       <use xlink:href="#DejaVuSans-35" x="95.410156"/>
      </g>
     </g>
    </g>
    <g id="ytick_7">
     <g id="line2d_23">
      <path d="M 57.6 55.697137 
L 414.72 55.697137 
" clip-path="url(#p6359cc8c49)" style="fill: none; stroke: #b0b0b0; stroke-width: 0.8; stroke-linecap: square"/>
     </g>
     <g id="line2d_24">
      <g>
       <use xlink:href="#m1ed8bd6087" x="57.6" y="55.697137" style="stroke: #000000; stroke-width: 0.8"/>
      </g>
     </g>
     <g id="text_13">
      <!-- 5.0 -->
      <g transform="translate(28.335625 61.016043) scale(0.14 -0.14)">
       <use xlink:href="#DejaVuSans-35"/>
       <use xlink:href="#DejaVuSans-2e" x="63.623047"/>
       <use xlink:href="#DejaVuSans-30" x="95.410156"/>
      </g>
     </g>
    </g>
    <g id="text_14">
     <!-- $I, \mathrm{г} \cdot \mathrm{м}^{2}$ -->
     <g transform="translate(21.424062 197.488) rotate(-90) scale(0.14 -0.14)">
      <defs>
       <path id="DejaVuSans-Oblique-49" d="M 1081 4666 
L 1716 4666 
L 806 0 
L 172 0 
L 1081 4666 
z
" transform="scale(0.015625)"/>
       <path id="DejaVuSans-433" d="M 581 0 
L 581 3500 
L 3050 3500 
L 3050 3041 
L 1159 3041 
L 1159 0 
L 581 0 
z
" transform="scale(0.015625)"/>
       <path id="DejaVuSans-22c5" d="M 684 2619 
L 1344 2619 
L 1344 1825 
L 684 1825 
L 684 2619 
z
" transform="scale(0.015625)"/>
      </defs>
      <use xlink:href="#DejaVuSans-Oblique-49" transform="translate(0 0.765625)"/>
      <use xlink:href="#DejaVuSans-2c" transform="translate(29.492188 0.765625)"/>
      <use xlink:href="#DejaVuSans-433" transform="translate(80.761719 0.765625)"/>
      <use xlink:href="#DejaVuSans-22c5" transform="translate(152.783203 0.765625)"/>
      <use xlink:href="#DejaVuSans-43c" transform="translate(204.052734 0.765625)"/>
      <use xlink:href="#DejaVuSans-32" transform="translate(280.449219 39.046875) scale(0.7)"/>
     </g>
    </g>
   </g>
   <g id="LineCollection_1">
    <path d="M 76.243528 294.629048 
L 77.850729 294.629048 
" clip-path="url(#p6359cc8c49)" style="fill: none; stroke: #000000; stroke-width: 1.5"/>
    <path d="M 76.243528 292.003655 
L 77.850729 292.003655 
" clip-path="url(#p6359cc8c49)" style="fill: none; stroke: #000000; stroke-width: 1.5"/>
    <path d="M 76.243528 294.221988 
L 77.850729 294.221988 
" clip-path="url(#p6359cc8c49)" style="fill: none; stroke: #000000; stroke-width: 1.5"/>
    <path d="M 76.243528 293.679054 
L 77.850729 293.679054 
" clip-path="url(#p6359cc8c49)" style="fill: none; stroke: #000000; stroke-width: 1.5"/>
    <path d="M 76.243528 294.041034 
L 77.850729 294.041034 
" clip-path="url(#p6359cc8c49)" style="fill: none; stroke: #000000; stroke-width: 1.5"/>
    <path d="M 76.243528 295.488 
L 77.850729 295.488 
" clip-path="url(#p6359cc8c49)" style="fill: none; stroke: #000000; stroke-width: 1.5"/>
    <path d="M 87.493933 281.223645 
L 90.708335 281.223645 
" clip-path="url(#p6359cc8c49)" style="fill: none; stroke: #000000; stroke-width: 1.5"/>
    <path d="M 87.493933 281.954045 
L 90.708335 281.954045 
" clip-path="url(#p6359cc8c49)" style="fill: none; stroke: #000000; stroke-width: 1.5"/>
    <path d="M 87.493933 282.684063 
L 90.708335 282.684063 
" clip-path="url(#p6359cc8c49)" style="fill: none; stroke: #000000; stroke-width: 1.5"/>
    <path d="M 106.780342 264.965919 
L 111.601944 264.965919 
" clip-path="url(#p6359cc8c49)" style="fill: none; stroke: #000000; stroke-width: 1.5"/>
    <path d="M 106.780342 264.734952 
L 111.601944 264.734952 
" clip-path="url(#p6359cc8c49)" style="fill: none; stroke: #000000; stroke-width: 1.5"/>
    <path d="M 106.780342 268.748457 
L 111.601944 268.748457 
" clip-path="url(#p6359cc8c49)" style="fill: none; stroke: #000000; stroke-width: 1.5"/>
    <path d="M 134.102754 243.326574 
L 140.531557 243.326574 
" clip-path="url(#p6359cc8c49)" style="fill: none; stroke: #000000; stroke-width: 1.5"/>
    <path d="M 134.102754 244.123366 
L 140.531557 244.123366 
" clip-path="url(#p6359cc8c49)" style="fill: none; stroke: #000000; stroke-width: 1.5"/>
    <path d="M 134.102754 244.310784 
L 140.531557 244.310784 
" clip-path="url(#p6359cc8c49)" style="fill: none; stroke: #000000; stroke-width: 1.5"/>
    <path d="M 169.46117 218.078608 
L 177.497174 218.078608 
" clip-path="url(#p6359cc8c49)" style="fill: none; stroke: #000000; stroke-width: 1.5"/>
    <path d="M 169.46117 218.745965 
L 177.497174 218.745965 
" clip-path="url(#p6359cc8c49)" style="fill: none; stroke: #000000; stroke-width: 1.5"/>
    <path d="M 169.46117 219.031887 
L 177.497174 219.031887 
" clip-path="url(#p6359cc8c49)" style="fill: none; stroke: #000000; stroke-width: 1.5"/>
    <path d="M 212.85559 188.133994 
L 222.498794 188.133994 
" clip-path="url(#p6359cc8c49)" style="fill: none; stroke: #000000; stroke-width: 1.5"/>
    <path d="M 212.85559 190.610965 
L 222.498794 190.610965 
" clip-path="url(#p6359cc8c49)" style="fill: none; stroke: #000000; stroke-width: 1.5"/>
    <path d="M 212.85559 190.950639 
L 222.498794 190.950639 
" clip-path="url(#p6359cc8c49)" style="fill: none; stroke: #000000; stroke-width: 1.5"/>
    <path d="M 264.286013 147.875489 
L 275.536418 147.875489 
" clip-path="url(#p6359cc8c49)" style="fill: none; stroke: #000000; stroke-width: 1.5"/>
    <path d="M 264.286013 150.862335 
L 275.536418 150.862335 
" clip-path="url(#p6359cc8c49)" style="fill: none; stroke: #000000; stroke-width: 1.5"/>
    <path d="M 264.286013 150.613636 
L 275.536418 150.613636 
" clip-path="url(#p6359cc8c49)" style="fill: none; stroke: #000000; stroke-width: 1.5"/>
    <path d="M 323.752439 106.108992 
L 336.610045 106.108992 
" clip-path="url(#p6359cc8c49)" style="fill: none; stroke: #000000; stroke-width: 1.5"/>
    <path d="M 323.752439 104.525422 
L 336.610045 104.525422 
" clip-path="url(#p6359cc8c49)" style="fill: none; stroke: #000000; stroke-width: 1.5"/>
    <path d="M 323.752439 107.180918 
L 336.610045 107.180918 
" clip-path="url(#p6359cc8c49)" style="fill: none; stroke: #000000; stroke-width: 1.5"/>
    <path d="M 391.254869 54.514043 
L 405.719676 54.514043 
" clip-path="url(#p6359cc8c49)" style="fill: none; stroke: #000000; stroke-width: 1.5"/>
    <path d="M 391.254869 55.24952 
L 405.719676 55.24952 
" clip-path="url(#p6359cc8c49)" style="fill: none; stroke: #000000; stroke-width: 1.5"/>
    <path d="M 391.254869 53.568 
L 405.719676 53.568 
" clip-path="url(#p6359cc8c49)" style="fill: none; stroke: #000000; stroke-width: 1.5"/>
   </g>
   <g id="LineCollection_2">
    <path d="M 77.047129 306.058669 
L 77.047129 283.199427 
" clip-path="url(#p6359cc8c49)" style="fill: none; stroke: #000000; stroke-width: 1.5"/>
    <path d="M 77.047129 303.433673 
L 77.047129 280.573637 
" clip-path="url(#p6359cc8c49)" style="fill: none; stroke: #000000; stroke-width: 1.5"/>
    <path d="M 77.047129 305.65167 
L 77.047129 282.792306 
" clip-path="url(#p6359cc8c49)" style="fill: none; stroke: #000000; stroke-width: 1.5"/>
    <path d="M 77.047129 305.108818 
L 77.047129 282.24929 
" clip-path="url(#p6359cc8c49)" style="fill: none; stroke: #000000; stroke-width: 1.5"/>
    <path d="M 77.047129 305.470743 
L 77.047129 282.611324 
" clip-path="url(#p6359cc8c49)" style="fill: none; stroke: #000000; stroke-width: 1.5"/>
    <path d="M 77.047129 306.917493 
L 77.047129 284.058507 
" clip-path="url(#p6359cc8c49)" style="fill: none; stroke: #000000; stroke-width: 1.5"/>
    <path d="M 89.101134 292.655373 
L 89.101134 269.791917 
" clip-path="url(#p6359cc8c49)" style="fill: none; stroke: #000000; stroke-width: 1.5"/>
    <path d="M 89.101134 293.385653 
L 89.101134 270.522437 
" clip-path="url(#p6359cc8c49)" style="fill: none; stroke: #000000; stroke-width: 1.5"/>
    <path d="M 89.101134 294.115552 
L 89.101134 271.252574 
" clip-path="url(#p6359cc8c49)" style="fill: none; stroke: #000000; stroke-width: 1.5"/>
    <path d="M 109.191143 276.400476 
L 109.191143 253.531361 
" clip-path="url(#p6359cc8c49)" style="fill: none; stroke: #000000; stroke-width: 1.5"/>
    <path d="M 109.191143 276.169552 
L 109.191143 253.300351 
" clip-path="url(#p6359cc8c49)" style="fill: none; stroke: #000000; stroke-width: 1.5"/>
    <path d="M 109.191143 280.18233 
L 109.191143 257.314584 
" clip-path="url(#p6359cc8c49)" style="fill: none; stroke: #000000; stroke-width: 1.5"/>
    <path d="M 137.317156 254.765365 
L 137.317156 231.887782 
" clip-path="url(#p6359cc8c49)" style="fill: none; stroke: #000000; stroke-width: 1.5"/>
    <path d="M 137.317156 255.561992 
L 137.317156 232.68474 
" clip-path="url(#p6359cc8c49)" style="fill: none; stroke: #000000; stroke-width: 1.5"/>
    <path d="M 137.317156 255.749372 
L 137.317156 232.872196 
" clip-path="url(#p6359cc8c49)" style="fill: none; stroke: #000000; stroke-width: 1.5"/>
    <path d="M 173.479172 229.523013 
L 173.479172 206.634202 
" clip-path="url(#p6359cc8c49)" style="fill: none; stroke: #000000; stroke-width: 1.5"/>
    <path d="M 173.479172 230.190213 
L 173.479172 207.301718 
" clip-path="url(#p6359cc8c49)" style="fill: none; stroke: #000000; stroke-width: 1.5"/>
    <path d="M 173.479172 230.476067 
L 173.479172 207.587706 
" clip-path="url(#p6359cc8c49)" style="fill: none; stroke: #000000; stroke-width: 1.5"/>
    <path d="M 217.677192 199.585997 
L 217.677192 176.681992 
" clip-path="url(#p6359cc8c49)" style="fill: none; stroke: #000000; stroke-width: 1.5"/>
    <path d="M 217.677192 202.062301 
L 217.677192 179.15963 
" clip-path="url(#p6359cc8c49)" style="fill: none; stroke: #000000; stroke-width: 1.5"/>
    <path d="M 217.677192 202.401884 
L 217.677192 179.499395 
" clip-path="url(#p6359cc8c49)" style="fill: none; stroke: #000000; stroke-width: 1.5"/>
    <path d="M 269.911215 159.339308 
L 269.911215 136.411671 
" clip-path="url(#p6359cc8c49)" style="fill: none; stroke: #000000; stroke-width: 1.5"/>
    <path d="M 269.911215 162.325213 
L 269.911215 139.399456 
" clip-path="url(#p6359cc8c49)" style="fill: none; stroke: #000000; stroke-width: 1.5"/>
    <path d="M 269.911215 162.076592 
L 269.911215 139.150679 
" clip-path="url(#p6359cc8c49)" style="fill: none; stroke: #000000; stroke-width: 1.5"/>
    <path d="M 330.181242 117.587006 
L 330.181242 94.630977 
" clip-path="url(#p6359cc8c49)" style="fill: none; stroke: #000000; stroke-width: 1.5"/>
    <path d="M 330.181242 116.004013 
L 330.181242 93.046831 
" clip-path="url(#p6359cc8c49)" style="fill: none; stroke: #000000; stroke-width: 1.5"/>
    <path d="M 330.181242 118.658544 
L 330.181242 95.703293 
" clip-path="url(#p6359cc8c49)" style="fill: none; stroke: #000000; stroke-width: 1.5"/>
    <path d="M 398.487273 66.012306 
L 398.487273 43.01578 
" clip-path="url(#p6359cc8c49)" style="fill: none; stroke: #000000; stroke-width: 1.5"/>
    <path d="M 398.487273 66.747474 
L 398.487273 43.751567 
" clip-path="url(#p6359cc8c49)" style="fill: none; stroke: #000000; stroke-width: 1.5"/>
    <path d="M 398.487273 65.066662 
L 398.487273 42.069338 
" clip-path="url(#p6359cc8c49)" style="fill: none; stroke: #000000; stroke-width: 1.5"/>
   </g>
   <g id="line2d_25">
    <path d="M 73.832727 293.943623 
L 398.487273 54.756156 
" clip-path="url(#p6359cc8c49)" style="fill: none; stroke: #000000; stroke-width: 1.5; stroke-linecap: square"/>
   </g>
   <g id="line2d_26">
    <defs>
     <path id="m9714c1dce6" d="M 0 1.5 
C 0.397805 1.5 0.77937 1.341951 1.06066 1.06066 
C 1.341951 0.77937 1.5 0.397805 1.5 0 
C 1.5 -0.397805 1.341951 -0.77937 1.06066 -1.06066 
C 0.77937 -1.341951 0.397805 -1.5 0 -1.5 
C -0.397805 -1.5 -0.77937 -1.341951 -1.06066 -1.06066 
C -1.341951 -0.77937 -1.5 -0.397805 -1.5 0 
C -1.5 0.397805 -1.341951 0.77937 -1.06066 1.06066 
C -0.77937 1.341951 -0.397805 1.5 0 1.5 
z
" style="stroke: #000000"/>
    </defs>
    <g clip-path="url(#p6359cc8c49)">
     <use xlink:href="#m9714c1dce6" x="77.047129" y="294.629048" style="stroke: #000000"/>
     <use xlink:href="#m9714c1dce6" x="77.047129" y="292.003655" style="stroke: #000000"/>
     <use xlink:href="#m9714c1dce6" x="77.047129" y="294.221988" style="stroke: #000000"/>
     <use xlink:href="#m9714c1dce6" x="77.047129" y="293.679054" style="stroke: #000000"/>
     <use xlink:href="#m9714c1dce6" x="77.047129" y="294.041034" style="stroke: #000000"/>
     <use xlink:href="#m9714c1dce6" x="77.047129" y="295.488" style="stroke: #000000"/>
     <use xlink:href="#m9714c1dce6" x="89.101134" y="281.223645" style="stroke: #000000"/>
     <use xlink:href="#m9714c1dce6" x="89.101134" y="281.954045" style="stroke: #000000"/>
     <use xlink:href="#m9714c1dce6" x="89.101134" y="282.684063" style="stroke: #000000"/>
     <use xlink:href="#m9714c1dce6" x="109.191143" y="264.965919" style="stroke: #000000"/>
     <use xlink:href="#m9714c1dce6" x="109.191143" y="264.734952" style="stroke: #000000"/>
     <use xlink:href="#m9714c1dce6" x="109.191143" y="268.748457" style="stroke: #000000"/>
     <use xlink:href="#m9714c1dce6" x="137.317156" y="243.326574" style="stroke: #000000"/>
     <use xlink:href="#m9714c1dce6" x="137.317156" y="244.123366" style="stroke: #000000"/>
     <use xlink:href="#m9714c1dce6" x="137.317156" y="244.310784" style="stroke: #000000"/>
     <use xlink:href="#m9714c1dce6" x="173.479172" y="218.078608" style="stroke: #000000"/>
     <use xlink:href="#m9714c1dce6" x="173.479172" y="218.745965" style="stroke: #000000"/>
     <use xlink:href="#m9714c1dce6" x="173.479172" y="219.031887" style="stroke: #000000"/>
     <use xlink:href="#m9714c1dce6" x="217.677192" y="188.133994" style="stroke: #000000"/>
     <use xlink:href="#m9714c1dce6" x="217.677192" y="190.610965" style="stroke: #000000"/>
     <use xlink:href="#m9714c1dce6" x="217.677192" y="190.950639" style="stroke: #000000"/>
     <use xlink:href="#m9714c1dce6" x="269.911215" y="147.875489" style="stroke: #000000"/>
     <use xlink:href="#m9714c1dce6" x="269.911215" y="150.862335" style="stroke: #000000"/>
     <use xlink:href="#m9714c1dce6" x="269.911215" y="150.613636" style="stroke: #000000"/>
     <use xlink:href="#m9714c1dce6" x="330.181242" y="106.108992" style="stroke: #000000"/>
     <use xlink:href="#m9714c1dce6" x="330.181242" y="104.525422" style="stroke: #000000"/>
     <use xlink:href="#m9714c1dce6" x="330.181242" y="107.180918" style="stroke: #000000"/>
     <use xlink:href="#m9714c1dce6" x="398.487273" y="54.514043" style="stroke: #000000"/>
     <use xlink:href="#m9714c1dce6" x="398.487273" y="55.24952" style="stroke: #000000"/>
     <use xlink:href="#m9714c1dce6" x="398.487273" y="53.568" style="stroke: #000000"/>
    </g>
   </g>
   <g id="patch_3">
    <path d="M 57.6 307.584 
L 57.6 41.472 
" style="fill: none; stroke: #000000; stroke-width: 0.8; stroke-linejoin: miter; stroke-linecap: square"/>
   </g>
   <g id="patch_4">
    <path d="M 414.72 307.584 
L 414.72 41.472 
" style="fill: none; stroke: #000000; stroke-width: 0.8; stroke-linejoin: miter; stroke-linecap: square"/>
   </g>
   <g id="patch_5">
    <path d="M 57.6 307.584 
L 414.72 307.584 
" style="fill: none; stroke: #000000; stroke-width: 0.8; stroke-linejoin: miter; stroke-linecap: square"/>
   </g>
   <g id="patch_6">
    <path d="M 57.6 41.472 
L 414.72 41.472 
" style="fill: none; stroke: #000000; stroke-width: 0.8; stroke-linejoin: miter; stroke-linecap: square"/>
   </g>
  </g>
 </g>
 <defs>
  <clipPath id="p6359cc8c49">
   <rect x="57.6" y="41.472" width="357.12" height="266.112"/>
  </clipPath>
 </defs>
</svg>
