<?xml version="1.0" encoding="utf-8" standalone="no"?>
<!DOCTYPE svg PUBLIC "-//W3C//DTD SVG 1.1//EN"
  "http://www.w3.org/Graphics/SVG/1.1/DTD/svg11.dtd">
<svg xmlns:xlink="http://www.w3.org/1999/xlink" width="460.8pt" height="345.6pt" viewBox="0 0 460.8 345.6" xmlns="http://www.w3.org/2000/svg" version="1.1">
 <metadata>
  <rdf:RDF xmlns:dc="http://purl.org/dc/elements/1.1/" xmlns:cc="http://creativecommons.org/ns#" xmlns:rdf="http://www.w3.org/1999/02/22-rdf-syntax-ns#">
   <cc:Work>
    <dc:type rdf:resource="http://purl.org/dc/dcmitype/StillImage"/>
    <dc:date>1980-01-01T00:00:00+00:00</dc:date>
    <dc:format>image/svg+xml</dc:format>
    <dc:creator>
     <cc:Agent>
      <dc:title>Matplotlib v3.8.0, https://matplotlib.org/</dc:title>
     </cc:Agent>
    </dc:creator>
   </cc:Work>
  </rdf:RDF>
 </metadata>
 <defs>
  <style type="text/css">*{stroke-linejoin: round; stroke-linecap: butt}</style>
 </defs>
 <g id="figure_1">
  <g id="patch_1">
   <path d="M 0 345.6 
L 460.8 345.6 
L 460.8 0 
L 0 0 
z
" style="fill: #ffffff"/>
  </g>
  <g id="axes_1">
   <g id="patch_2">
    <path d="M 99.629517 119.740235 
L 177.897756 119.740235 
L 177.897756 41.472 
L 99.629517 41.472 
z
" style="fill: #ffffff"/>
   </g>
   <g id="matplotlib.axis_1"/>
   <g id="matplotlib.axis_2"/>
   <g id="line2d_1">
    <path d="M 138.763636 45.029647 
L 141.57778 45.141123 
L 144.374288 45.474852 
L 147.135635 46.028742 
L 149.844515 46.799323 
L 152.483954 47.781765 
L 155.037411 48.969911 
L 157.488882 50.356316 
L 159.823005 51.932292 
L 162.025153 53.687961 
L 164.081525 55.612322 
L 165.979235 57.693314 
L 167.706389 59.917898 
L 169.252163 62.27213 
L 170.606872 64.741259 
L 171.762024 67.30981 
L 172.710382 69.961686 
L 173.446001 72.68027 
L 173.964271 75.448523 
L 174.261945 78.249098 
L 174.337158 81.064444 
L 174.189438 83.876918 
L 173.81971 86.668894 
L 173.230292 89.422876 
L 172.424877 92.121605 
L 171.408513 94.748169 
L 170.18757 97.286106 
L 168.769698 99.719513 
L 167.163784 102.03314 
L 165.37989 104.212488 
L 163.429197 106.243898 
L 161.32393 108.114641 
L 159.077281 109.812993 
L 156.70333 111.32831 
L 154.216954 112.651097 
L 151.633735 113.773064 
L 148.969861 114.687179 
L 146.242026 115.387714 
L 143.467326 115.870279 
L 140.663148 116.131849 
L 137.847067 116.170786 
L 135.036729 115.986846 
L 132.249748 115.58118 
L 129.503588 114.956332 
L 126.815459 114.116217 
L 124.202207 113.066101 
L 121.680209 111.812563 
L 119.26527 110.36346 
L 116.972523 108.727873 
L 114.816338 106.916051 
L 112.810227 104.93935 
L 110.966761 102.810157 
L 109.297493 100.541815 
L 107.812884 98.14854 
L 106.522238 95.645329 
L 105.433644 93.04787 
L 104.553923 90.372441 
L 103.888588 87.635808 
L 103.441809 84.855121 
L 103.216385 82.047806 
L 103.21373 79.231457 
L 103.433861 76.423722 
L 103.875396 73.642198 
L 104.535571 70.904316 
L 105.410246 68.227233 
L 106.493942 65.627726 
L 107.779866 63.122086 
L 109.25996 60.726016 
L 110.924948 58.454531 
L 112.764397 56.321866 
L 114.766778 54.341386 
L 116.919543 52.525503 
L 119.209202 50.885596 
L 121.621405 49.431943 
L 124.141035 48.173652 
L 126.752302 47.118611 
L 129.438843 46.273429 
L 132.18382 45.643405 
L 134.970032 45.232486 
L 137.780017 45.043247 
L 138.763636 45.029647 
L 138.763636 45.029647 
" clip-path="url(#p6634138bb2)" style="fill: none; stroke: #000000; stroke-width: 1.5; stroke-linecap: square"/>
   </g>
   <g id="patch_3">
    <path d="M 99.629517 119.740235 
L 99.629517 41.472 
" style="fill: none; stroke: #000000; stroke-width: 0.8; stroke-linejoin: miter; stroke-linecap: square"/>
   </g>
   <g id="patch_4">
    <path d="M 177.897756 119.740235 
L 177.897756 41.472 
" style="fill: none; stroke: #000000; stroke-width: 0.8; stroke-linejoin: miter; stroke-linecap: square"/>
   </g>
   <g id="patch_5">
    <path d="M 99.629517 119.740235 
L 177.897756 119.740235 
" style="fill: none; stroke: #000000; stroke-width: 0.8; stroke-linejoin: miter; stroke-linecap: square"/>
   </g>
   <g id="patch_6">
    <path d="M 99.629517 41.472 
L 177.897756 41.472 
" style="fill: none; stroke: #000000; stroke-width: 0.8; stroke-linejoin: miter; stroke-linecap: square"/>
   </g>
   <g id="text_1">
    <!-- 1:1 -->
    <g transform="translate(131.038636 129.393882) scale(0.096 -0.096)">
     <defs>
      <path id="DejaVuSans-31" d="M 794 531 
L 1825 531 
L 1825 4091 
L 703 3866 
L 703 4441 
L 1819 4666 
L 2450 4666 
L 2450 531 
L 3481 531 
L 3481 0 
L 794 0 
L 794 531 
z
" transform="scale(0.015625)"/>
      <path id="DejaVuSans-3a" d="M 750 794 
L 1409 794 
L 1409 0 
L 750 0 
L 750 794 
z
M 750 3309 
L 1409 3309 
L 1409 2516 
L 750 2516 
L 750 3309 
z
" transform="scale(0.015625)"/>
     </defs>
     <use xlink:href="#DejaVuSans-31"/>
     <use xlink:href="#DejaVuSans-3a" x="63.623047"/>
     <use xlink:href="#DejaVuSans-31" x="97.314453"/>
    </g>
   </g>
  </g>
  <g id="axes_2">
   <g id="patch_7">
    <path d="M 294.422244 119.740235 
L 372.690483 119.740235 
L 372.690483 41.472 
L 294.422244 41.472 
z
" style="fill: #ffffff"/>
   </g>
   <g id="matplotlib.axis_3"/>
   <g id="matplotlib.axis_4"/>
   <g id="line2d_2">
    <path d="M 333.556364 45.029647 
L 339.167015 45.141123 
L 344.552225 45.467827 
L 349.511215 45.987088 
L 353.888359 46.662722 
L 357.652087 47.463502 
L 360.743142 48.341135 
L 363.209122 49.261155 
L 365.156702 50.215965 
L 366.637659 51.183898 
L 367.710292 52.145492 
L 368.435823 53.083429 
L 368.886139 54.012132 
L 369.104514 54.952848 
L 369.107126 55.932505 
L 368.883504 56.983032 
L 368.413631 58.106389 
L 367.653414 59.340075 
L 366.529625 60.726016 
L 364.980297 62.27213 
L 362.896641 64.024959 
L 360.202267 65.993711 
L 356.69924 68.269164 
L 352.148356 70.947344 
L 346.134157 74.213161 
L 337.283271 78.740099 
L 319.199213 87.94237 
L 313.206025 91.271888 
L 308.794307 93.964622 
L 305.455166 96.250478 
L 302.941825 98.226287 
L 301.055334 99.98277 
L 299.711467 101.530107 
L 298.820038 102.879962 
L 298.267583 104.111959 
L 298.014801 105.19908 
L 298.003114 106.212876 
L 298.211069 107.15551 
L 298.633553 108.057843 
L 299.316131 108.972569 
L 300.26563 109.863965 
L 301.57478 110.773259 
L 303.253725 111.661053 
L 305.38675 112.533649 
L 308.081903 113.387203 
L 311.326134 114.175864 
L 315.212793 114.885523 
L 319.671193 115.470082 
L 324.663819 115.899142 
L 330.11863 116.14095 
L 335.746046 116.165729 
L 341.318658 115.967661 
L 346.530616 115.564695 
L 351.283251 114.979501 
L 355.435734 114.249228 
L 358.905647 113.421849 
L 361.780511 112.513897 
L 364.044891 111.573396 
L 365.807207 110.606176 
L 367.09266 109.658972 
L 368.028553 108.700461 
L 368.638769 107.771256 
L 369.000098 106.825567 
L 369.131557 105.868974 
L 369.047091 104.874032 
L 368.733969 103.808374 
L 368.152074 102.635032 
L 367.260786 101.348875 
L 365.984236 99.907706 
L 364.216362 98.265119 
L 361.875515 96.41092 
L 358.827086 94.295491 
L 354.920863 91.86743 
L 349.850016 88.988984 
L 342.945869 85.343051 
L 330.630795 79.142097 
L 319.81542 73.598353 
L 313.611412 70.175231 
L 309.084845 67.43433 
L 305.648208 65.102477 
L 303.056321 63.083157 
L 301.146909 61.323321 
L 299.781037 59.772648 
L 298.869025 58.419558 
L 298.296656 57.184312 
L 298.025406 56.094062 
L 297.995739 55.077098 
L 298.18632 54.131276 
L 298.591582 53.225642 
L 299.232477 52.334403 
L 300.156534 51.437599 
L 301.400543 50.546127 
L 303.044817 49.649858 
L 305.142756 48.767872 
L 307.740997 47.921381 
L 310.944248 47.118611 
L 314.71719 46.405629 
L 319.137869 45.801201 
L 324.102179 45.350894 
L 329.451685 45.089093 
L 333.556364 45.029647 
L 333.556364 45.029647 
" clip-path="url(#pf98b115b61)" style="fill: none; stroke: #000000; stroke-width: 1.5; stroke-linecap: square"/>
   </g>
   <g id="patch_8">
    <path d="M 294.422244 119.740235 
L 294.422244 41.472 
" style="fill: none; stroke: #000000; stroke-width: 0.8; stroke-linejoin: miter; stroke-linecap: square"/>
   </g>
   <g id="patch_9">
    <path d="M 372.690483 119.740235 
L 372.690483 41.472 
" style="fill: none; stroke: #000000; stroke-width: 0.8; stroke-linejoin: miter; stroke-linecap: square"/>
   </g>
   <g id="patch_10">
    <path d="M 294.422244 119.740235 
L 372.690483 119.740235 
" style="fill: none; stroke: #000000; stroke-width: 0.8; stroke-linejoin: miter; stroke-linecap: square"/>
   </g>
   <g id="patch_11">
    <path d="M 294.422244 41.472 
L 372.690483 41.472 
" style="fill: none; stroke: #000000; stroke-width: 0.8; stroke-linejoin: miter; stroke-linecap: square"/>
   </g>
   <g id="text_2">
    <!-- 1:2 -->
    <g transform="translate(325.831364 129.393882) scale(0.096 -0.096)">
     <defs>
      <path id="DejaVuSans-32" d="M 1228 531 
L 3431 531 
L 3431 0 
L 469 0 
L 469 531 
Q 828 903 1448 1529 
Q 2069 2156 2228 2338 
Q 2531 2678 2651 2914 
Q 2772 3150 2772 3378 
Q 2772 3750 2511 3984 
Q 2250 4219 1831 4219 
Q 1534 4219 1204 4116 
Q 875 4013 500 3803 
L 500 4441 
Q 881 4594 1212 4672 
Q 1544 4750 1819 4750 
Q 2544 4750 2975 4387 
Q 3406 4025 3406 3419 
Q 3406 3131 3298 2873 
Q 3191 2616 2906 2266 
Q 2828 2175 2409 1742 
Q 1991 1309 1228 531 
z
" transform="scale(0.015625)"/>
     </defs>
     <use xlink:href="#DejaVuSans-31"/>
     <use xlink:href="#DejaVuSans-3a" x="63.623047"/>
     <use xlink:href="#DejaVuSans-32" x="97.314453"/>
    </g>
   </g>
  </g>
  <g id="axes_3">
   <g id="patch_12">
    <path d="M 99.629517 213.662118 
L 177.897756 213.662118 
L 177.897756 135.393882 
L 99.629517 135.393882 
z
" style="fill: #ffffff"/>
   </g>
   <g id="matplotlib.axis_5"/>
   <g id="matplotlib.axis_6"/>
   <g id="line2d_3">
    <path d="M 138.763636 138.951529 
L 147.135635 139.063005 
L 154.798371 139.382741 
L 161.098441 139.858135 
L 165.979235 140.440538 
L 169.389558 141.055616 
L 171.711654 141.686428 
L 173.122561 142.281881 
L 173.903678 142.830656 
L 174.261945 143.332304 
L 174.337158 143.794546 
L 174.189438 144.278199 
L 173.772992 144.83208 
L 172.985598 145.488063 
L 171.618092 146.310663 
L 169.468901 147.319606 
L 166.250877 148.566949 
L 161.427495 150.178469 
L 153.974855 152.411421 
L 126.815459 160.365443 
L 120.51594 162.527192 
L 115.722809 164.396767 
L 111.999556 166.079971 
L 109.14799 167.607937 
L 107.051074 168.972554 
L 105.528418 170.212418 
L 104.445637 171.368538 
L 103.738487 172.438749 
L 103.341974 173.421469 
L 103.190719 174.36032 
L 103.262393 175.299288 
L 103.556547 176.237719 
L 104.101306 177.219548 
L 104.925636 178.243793 
L 106.109878 179.353553 
L 107.71416 180.54671 
L 109.872981 181.864252 
L 112.673014 183.301431 
L 116.289892 184.894749 
L 120.804639 186.633992 
L 126.626118 188.629009 
L 134.303835 191.010179 
L 146.045183 194.389563 
L 160.537072 198.599043 
L 166.208246 200.473766 
L 169.769358 201.865608 
L 172.038574 202.975212 
L 173.374926 203.861958 
L 174.049572 204.55207 
L 174.315242 205.114031 
L 174.309047 205.582936 
L 174.080096 206.030206 
L 173.575487 206.494883 
L 172.690253 206.987983 
L 171.264666 207.513843 
L 169.077983 208.068029 
L 165.935988 208.621862 
L 161.56508 209.152181 
L 155.925456 209.604823 
L 148.884156 209.940148 
L 140.841731 210.097726 
L 132.425668 210.041093 
L 124.488357 209.768068 
L 117.866782 209.328285 
L 112.657819 208.77127 
L 108.878283 208.156544 
L 106.317398 207.530568 
L 104.718059 206.932846 
L 103.794733 206.376223 
L 103.333752 205.862388 
L 103.18826 205.384607 
L 103.277626 204.90653 
L 103.609741 204.382995 
L 104.28042 203.760384 
L 105.441469 203.002042 
L 107.308311 202.064857 
L 110.162769 200.898049 
L 114.438564 199.410185 
L 120.881896 197.423702 
L 133.32968 193.867136 
L 146.263883 190.09199 
L 153.752171 187.679023 
L 159.315214 185.661983 
L 163.541742 183.906726 
L 166.851117 182.301207 
L 169.343953 180.854971 
L 171.200698 179.530701 
L 172.517832 178.332723 
L 173.425967 177.219548 
L 173.989756 176.193053 
L 174.281309 175.209876 
L 174.331749 174.270891 
L 174.15929 173.332085 
L 173.740741 172.349479 
L 173.046028 171.324002 
L 172.046478 170.256807 
L 170.656566 169.105095 
L 168.745651 167.82738 
L 166.307567 166.471433 
L 163.105019 164.955329 
L 159.040555 163.287905 
L 153.812974 161.39776 
L 147.113903 159.225896 
L 137.936471 156.5015 
L 114.194922 149.566046 
L 109.575927 147.934014 
L 106.617387 146.668446 
L 104.810208 145.670001 
L 103.802989 144.881423 
L 103.325754 144.254687 
L 103.187206 143.727193 
L 103.29426 143.268036 
L 103.644793 142.810376 
L 104.302529 142.33878 
L 105.425832 141.82563 
L 107.163298 141.288799 
L 109.743082 140.735159 
L 113.445747 140.183619 
L 118.358318 139.686475 
L 124.672895 139.2788 
L 132.227769 139.018979 
L 138.763636 138.951529 
L 138.763636 138.951529 
" clip-path="url(#p6cd8de9ee7)" style="fill: none; stroke: #000000; stroke-width: 1.5; stroke-linecap: square"/>
   </g>
   <g id="patch_13">
    <path d="M 99.629517 213.662118 
L 99.629517 135.393882 
" style="fill: none; stroke: #000000; stroke-width: 0.8; stroke-linejoin: miter; stroke-linecap: square"/>
   </g>
   <g id="patch_14">
    <path d="M 177.897756 213.662118 
L 177.897756 135.393882 
" style="fill: none; stroke: #000000; stroke-width: 0.8; stroke-linejoin: miter; stroke-linecap: square"/>
   </g>
   <g id="patch_15">
    <path d="M 99.629517 213.662118 
L 177.897756 213.662118 
" style="fill: none; stroke: #000000; stroke-width: 0.8; stroke-linejoin: miter; stroke-linecap: square"/>
   </g>
   <g id="patch_16">
    <path d="M 99.629517 135.393882 
L 177.897756 135.393882 
" style="fill: none; stroke: #000000; stroke-width: 0.8; stroke-linejoin: miter; stroke-linecap: square"/>
   </g>
   <g id="text_3">
    <!-- 1:3 -->
    <g transform="translate(131.038636 223.315765) scale(0.096 -0.096)">
     <defs>
      <path id="DejaVuSans-33" d="M 2597 2516 
Q 3050 2419 3304 2112 
Q 3559 1806 3559 1356 
Q 3559 666 3084 287 
Q 2609 -91 1734 -91 
Q 1441 -91 1130 -33 
Q 819 25 488 141 
L 488 750 
Q 750 597 1062 519 
Q 1375 441 1716 441 
Q 2309 441 2620 675 
Q 2931 909 2931 1356 
Q 2931 1769 2642 2001 
Q 2353 2234 1838 2234 
L 1294 2234 
L 1294 2753 
L 1863 2753 
Q 2328 2753 2575 2939 
Q 2822 3125 2822 3475 
Q 2822 3834 2567 4026 
Q 2313 4219 1838 4219 
Q 1578 4219 1281 4162 
Q 984 4106 628 3988 
L 628 4550 
Q 988 4650 1302 4700 
Q 1616 4750 1894 4750 
Q 2613 4750 3031 4423 
Q 3450 4097 3450 3541 
Q 3450 3153 3228 2886 
Q 3006 2619 2597 2516 
z
" transform="scale(0.015625)"/>
     </defs>
     <use xlink:href="#DejaVuSans-31"/>
     <use xlink:href="#DejaVuSans-3a" x="63.623047"/>
     <use xlink:href="#DejaVuSans-33" x="97.314453"/>
    </g>
   </g>
  </g>
  <g id="axes_4">
   <g id="patch_17">
    <path d="M 294.422244 213.662118 
L 372.690483 213.662118 
L 372.690483 135.393882 
L 294.422244 135.393882 
z
" style="fill: #ffffff"/>
   </g>
   <g id="matplotlib.axis_7"/>
   <g id="matplotlib.axis_8"/>
   <g id="line2d_4">
    <path d="M 333.556364 138.951529 
L 337.705456 139.059496 
L 341.797923 139.382741 
L 345.77791 139.919302 
L 349.471236 140.638603 
L 352.848557 141.517096 
L 355.891168 142.531743 
L 358.589909 143.660278 
L 360.94398 144.881423 
L 362.95972 146.175055 
L 364.649399 147.522324 
L 366.030055 148.905733 
L 367.122403 150.309181 
L 367.949839 151.71798 
L 368.561736 153.19033 
L 368.954261 154.722127 
L 369.124954 156.309105 
L 369.072744 157.946841 
L 368.79796 159.630774 
L 368.273259 161.43933 
L 367.469494 163.372791 
L 366.359124 165.429961 
L 364.917179 167.607937 
L 363.122362 169.901891 
L 360.958244 172.304849 
L 358.318421 174.896901 
L 355.170318 177.665198 
L 351.496057 180.590777 
L 347.297307 183.647659 
L 342.470555 186.885929 
L 336.927331 190.332803 
L 330.630795 193.979594 
L 323.521612 197.831783 
L 315.655299 201.836971 
L 306.880853 206.05096 
L 297.979905 210.104471 
L 315.829476 201.7508 
L 323.972923 197.594374 
L 331.232804 193.641396 
L 337.661043 189.890636 
L 343.311933 186.339197 
L 348.219718 182.997753 
L 352.471341 179.840403 
L 356.16848 176.818097 
L 359.217381 174.047325 
L 361.753267 171.457626 
L 363.882406 168.972554 
L 365.55751 166.689361 
L 366.878531 164.525431 
L 367.868462 162.485107 
L 368.553729 160.570821 
L 368.963099 158.783324 
L 369.126724 157.12191 
L 369.067436 155.508991 
L 368.785607 153.94906 
L 368.283001 152.446464 
L 367.56277 151.005388 
L 366.629427 149.629847 
L 365.429453 148.263269 
L 363.940707 146.920505 
L 362.223574 145.670001 
L 360.202267 144.468009 
L 357.865116 143.332304 
L 355.099215 142.244204 
L 351.995627 141.272885 
L 348.565172 140.440538 
L 344.828276 139.770081 
L 340.947297 139.297204 
L 336.838292 139.018979 
L 332.684496 138.956278 
L 328.542599 139.109482 
L 324.469129 139.477661 
L 320.51968 140.058579 
L 316.866505 140.820004 
L 313.537419 141.73824 
L 310.549625 142.790147 
L 307.910837 143.953401 
L 305.620498 145.206706 
L 303.671011 146.529952 
L 302.048968 147.904333 
L 300.73632 149.312422 
L 299.711467 150.738207 
L 298.950254 152.167105 
L 298.405911 153.658301 
L 298.08185 155.207641 
L 297.980102 156.810809 
L 298.101304 158.463339 
L 298.444697 160.160625 
L 299.040392 161.981586 
L 299.916893 163.926244 
L 301.100961 165.993124 
L 302.616642 168.179036 
L 304.48417 170.478851 
L 306.807019 172.974628 
L 309.526512 175.567495 
L 312.750085 178.332723 
L 316.492551 181.250584 
L 320.874063 184.380288 
L 325.88137 187.679023 
L 331.589877 191.168479 
L 338.016165 194.83247 
L 345.314818 198.730443 
L 353.445738 202.813288 
L 362.447019 207.078852 
L 369.132822 210.104471 
L 353.278584 202.731722 
L 344.99778 198.566097 
L 337.54998 194.574662 
L 330.987451 190.811718 
L 325.162637 187.220749 
L 320.063283 183.820429 
L 315.61667 180.590777 
L 311.836011 177.576106 
L 308.602372 174.718044 
L 305.899576 172.037145 
L 303.695294 169.547443 
L 301.884435 167.169879 
L 300.499803 164.998403 
L 299.446579 162.949077 
L 298.699096 161.024579 
L 298.229223 159.225896 
L 298.002314 157.474001 
L 298.013818 155.850307 
L 298.248062 154.27865 
L 298.703576 152.76341 
L 299.377507 151.308807 
L 300.26563 149.918894 
L 301.4197 148.536396 
L 302.794789 147.233371 
L 304.458419 145.960413 
L 306.427355 144.733957 
L 308.714162 143.571741 
L 311.326134 142.492745 
L 314.26417 141.517096 
L 317.521629 140.665923 
L 321.083201 139.961174 
L 324.923847 139.425386 
L 329.00785 139.081391 
L 333.153931 138.952541 
L 333.556364 138.951529 
L 333.556364 138.951529 
" clip-path="url(#pbe8d4208f3)" style="fill: none; stroke: #000000; stroke-width: 1.5; stroke-linecap: square"/>
   </g>
   <g id="patch_18">
    <path d="M 294.422244 213.662118 
L 294.422244 135.393882 
" style="fill: none; stroke: #000000; stroke-width: 0.8; stroke-linejoin: miter; stroke-linecap: square"/>
   </g>
   <g id="patch_19">
    <path d="M 372.690483 213.662118 
L 372.690483 135.393882 
" style="fill: none; stroke: #000000; stroke-width: 0.8; stroke-linejoin: miter; stroke-linecap: square"/>
   </g>
   <g id="patch_20">
    <path d="M 294.422244 213.662118 
L 372.690483 213.662118 
" style="fill: none; stroke: #000000; stroke-width: 0.8; stroke-linejoin: miter; stroke-linecap: square"/>
   </g>
   <g id="patch_21">
    <path d="M 294.422244 135.393882 
L 372.690483 135.393882 
" style="fill: none; stroke: #000000; stroke-width: 0.8; stroke-linejoin: miter; stroke-linecap: square"/>
   </g>
   <g id="text_4">
    <!-- 2:3 -->
    <g transform="translate(325.831364 223.315765) scale(0.096 -0.096)">
     <use xlink:href="#DejaVuSans-32"/>
     <use xlink:href="#DejaVuSans-3a" x="63.623047"/>
     <use xlink:href="#DejaVuSans-33" x="97.314453"/>
    </g>
   </g>
  </g>
  <g id="axes_5">
   <g id="patch_22">
    <path d="M 99.629517 307.584 
L 177.897756 307.584 
L 177.897756 229.315765 
L 99.629517 229.315765 
z
" style="fill: #ffffff"/>
   </g>
   <g id="matplotlib.axis_9"/>
   <g id="matplotlib.axis_10"/>
   <g id="line2d_5">
    <path d="M 138.763636 232.873412 
L 140.908686 232.988453 
L 143.045931 233.332831 
L 145.167594 233.90432 
L 147.265954 234.699224 
L 149.333378 235.712402 
L 151.487705 237.020713 
L 153.589768 238.558469 
L 155.748922 240.424268 
L 157.829862 242.519426 
L 159.930975 244.960835 
L 161.923489 247.616413 
L 163.892321 250.616489 
L 165.71831 253.796718 
L 167.470517 257.294674 
L 169.042823 260.91686 
L 170.486325 264.80081 
L 171.711654 268.729356 
L 172.710382 272.654487 
L 173.47564 276.528232 
L 174.002165 280.30325 
L 174.286336 283.933404 
L 174.329698 287.222634 
L 174.150173 290.302801 
L 173.772992 293.010514 
L 173.230292 295.353422 
L 172.552984 297.347063 
L 171.720082 299.104212 
L 170.794031 300.533607 
L 169.802193 301.665121 
L 168.697415 302.581825 
L 167.562683 303.240851 
L 166.335847 303.702108 
L 165.02083 303.962975 
L 163.621837 304.021969 
L 162.042065 303.862031 
L 160.377591 303.473073 
L 158.523057 302.811709 
L 156.471136 301.83815 
L 154.216954 300.51426 
L 151.758704 298.805116 
L 149.098296 296.680837 
L 146.242026 294.118644 
L 143.068125 290.966933 
L 139.590802 287.184636 
L 135.838068 282.755878 
L 131.854535 277.699141 
L 127.576584 271.898746 
L 122.98889 265.290421 
L 118.157345 257.933528 
L 112.994468 249.65815 
L 107.551828 240.507099 
L 103.187178 232.87344 
L 113.040758 249.734146 
L 118.321705 258.190129 
L 123.290184 265.736048 
L 128.023243 272.52125 
L 132.44767 278.473912 
L 136.573954 283.650998 
L 140.32818 288.013658 
L 143.799535 291.71986 
L 147.092168 294.909791 
L 150.056752 297.476906 
L 152.813308 299.570046 
L 155.235904 301.143449 
L 157.450847 302.332477 
L 159.460953 303.174093 
L 161.272027 303.708104 
L 162.990646 303.984715 
L 164.517385 304.008089 
L 165.950414 303.801499 
L 167.20413 303.400135 
L 168.366888 302.800097 
L 169.434969 302.004796 
L 170.466059 300.946367 
L 171.381793 299.677775 
L 172.224646 298.10882 
L 172.930056 296.323342 
L 173.523941 294.211346 
L 173.977125 291.753666 
L 174.258955 288.937539 
L 174.339013 285.914446 
L 174.205434 282.550891 
L 173.827302 278.859398 
L 173.20802 275.040688 
L 172.351845 271.14143 
L 171.264666 267.209278 
L 169.95396 263.292288 
L 168.428743 259.438329 
L 166.782367 255.861636 
L 164.960403 252.425131 
L 163.072389 249.31764 
L 161.046193 246.403423 
L 159.003797 243.840776 
L 156.85756 241.50251 
L 154.738468 239.513636 
L 152.545815 237.761574 
L 150.416526 236.337239 
L 148.239373 235.14734 
L 146.154569 234.249394 
L 144.042873 233.57263 
L 141.911967 233.121426 
L 139.769605 232.8987 
L 137.623582 232.905892 
L 135.481708 233.142956 
L 133.351776 233.608358 
L 131.241536 234.299089 
L 129.158666 235.210681 
L 126.984083 236.414628 
L 124.857884 237.852445 
L 122.788805 239.513636 
L 120.669713 241.50251 
L 118.633941 243.71192 
L 116.585814 246.263323 
L 114.553004 249.167086 
L 112.657819 252.265644 
L 110.82777 255.694504 
L 109.172791 259.265415 
L 107.638061 263.11538 
L 106.317398 267.03054 
L 105.219885 270.963047 
L 104.35307 274.864839 
L 103.722914 278.688233 
L 103.333752 282.386501 
L 103.18826 285.914446 
L 103.277626 289.083506 
L 103.569512 291.888519 
L 104.061458 294.456755 
L 104.711578 296.653604 
L 105.488699 298.497916 
L 106.363409 300.0142 
L 107.308311 301.230968 
L 108.367669 302.235733 
L 109.461344 302.97936 
L 110.648734 303.526706 
L 111.926039 303.874658 
L 113.289176 304.021239 
L 114.832877 303.954719 
L 116.463655 303.65858 
L 118.285124 303.094508 
L 120.305257 302.221699 
L 122.529638 301.000734 
L 124.960849 299.395124 
L 127.59781 297.373123 
L 130.435105 294.909791 
L 133.462291 291.989271 
L 136.79715 288.459588 
L 140.417519 284.294733 
L 144.285958 279.498892 
L 148.476197 273.939075 
L 152.895425 267.700954 
L 157.640727 260.611243 
L 162.661289 252.705206 
L 168.040546 243.808504 
L 173.703401 234.002707 
L 174.340095 232.87344 
L 167.925757 244.002721 
L 162.411791 253.107422 
L 157.241126 261.22306 
L 152.339424 268.50578 
L 147.764378 274.908817 
L 143.555957 280.429647 
L 139.546097 285.327022 
L 135.927206 289.41002 
L 132.469674 292.978144 
L 129.331008 295.901607 
L 126.521096 298.231708 
L 123.917184 300.116721 
L 121.523533 301.584371 
L 119.340134 302.668791 
L 117.363399 303.40846 
L 115.586817 303.844412 
L 114.001579 304.01871 
L 112.506443 303.962975 
L 111.191426 303.702108 
L 109.96459 303.240851 
L 108.829858 302.581825 
L 107.79086 301.728777 
L 106.791853 300.610488 
L 105.909181 299.284209 
L 105.102396 297.656758 
L 104.398919 295.701449 
L 103.853687 293.523116 
L 103.452601 291.001534 
L 103.226147 288.125562 
L 103.205794 284.892421 
L 103.408274 281.476167 
L 103.858001 277.742311 
L 104.547792 273.89489 
L 105.472903 269.980924 
L 106.626972 266.048247 
L 108.002062 262.144921 
L 109.588716 258.318649 
L 111.290595 254.781155 
L 113.164643 251.395883 
L 115.098783 248.347851 
L 117.167445 245.50289 
L 119.246573 243.014474 
L 121.425832 240.757974 
L 123.572632 238.852836 
L 125.789384 237.189918 
L 127.938018 235.854085 
L 130.131119 234.756214 
L 132.227769 233.947503 
L 134.348201 233.361927 
L 136.484699 233.003273 
L 138.62949 232.873861 
L 138.763636 232.873412 
L 138.763636 232.873412 
" clip-path="url(#p84a00eccf7)" style="fill: none; stroke: #000000; stroke-width: 1.5; stroke-linecap: square"/>
   </g>
   <g id="patch_23">
    <path d="M 99.629517 307.584 
L 99.629517 229.315765 
" style="fill: none; stroke: #000000; stroke-width: 0.8; stroke-linejoin: miter; stroke-linecap: square"/>
   </g>
   <g id="patch_24">
    <path d="M 177.897756 307.584 
L 177.897756 229.315765 
" style="fill: none; stroke: #000000; stroke-width: 0.8; stroke-linejoin: miter; stroke-linecap: square"/>
   </g>
   <g id="patch_25">
    <path d="M 99.629517 307.584 
L 177.897756 307.584 
" style="fill: none; stroke: #000000; stroke-width: 0.8; stroke-linejoin: miter; stroke-linecap: square"/>
   </g>
   <g id="patch_26">
    <path d="M 99.629517 229.315765 
L 177.897756 229.315765 
" style="fill: none; stroke: #000000; stroke-width: 0.8; stroke-linejoin: miter; stroke-linecap: square"/>
   </g>
   <g id="text_5">
    <!-- 4:3 -->
    <g transform="translate(131.038636 317.237647) scale(0.096 -0.096)">
     <defs>
      <path id="DejaVuSans-34" d="M 2419 4116 
L 825 1625 
L 2419 1625 
L 2419 4116 
z
M 2253 4666 
L 3047 4666 
L 3047 1625 
L 3713 1625 
L 3713 1100 
L 3047 1100 
L 3047 0 
L 2419 0 
L 2419 1100 
L 313 1100 
L 313 1709 
L 2253 4666 
z
" transform="scale(0.015625)"/>
     </defs>
     <use xlink:href="#DejaVuSans-34"/>
     <use xlink:href="#DejaVuSans-3a" x="63.623047"/>
     <use xlink:href="#DejaVuSans-33" x="97.314453"/>
    </g>
   </g>
  </g>
  <g id="axes_6">
   <g id="patch_27">
    <path d="M 294.422246 307.584 
L 372.690482 307.584 
L 372.690482 229.315765 
L 294.422246 229.315765 
z
" style="fill: #ffffff"/>
   </g>
   <g id="matplotlib.axis_11"/>
   <g id="matplotlib.axis_12"/>
   <g id="line2d_6">
    <path d="M 333.556364 243.293519 
L 335.433549 240.201935 
L 337.127591 237.826808 
L 338.636524 236.070468 
L 340.048271 234.75442 
L 341.36229 233.829565 
L 342.578734 233.2436 
L 343.698315 232.943291 
L 344.807067 232.87984 
L 345.903805 233.05367 
L 346.987358 233.463621 
L 348.056569 234.106959 
L 349.190679 235.055835 
L 350.384274 236.358922 
L 351.631033 238.062635 
L 352.923636 240.208733 
L 354.326354 242.987133 
L 355.821486 246.478078 
L 357.387689 250.737538 
L 358.999589 255.783252 
L 360.685371 261.798672 
L 362.447018 268.913796 
L 364.295449 277.315366 
L 366.227844 287.15136 
L 368.248661 298.619983 
L 369.132835 304.026346 
L 366.147683 286.721565 
L 364.102348 276.392082 
L 362.170521 267.74007 
L 360.320443 260.431428 
L 358.542205 254.282197 
L 356.834792 249.162388 
L 355.241283 245.057541 
L 353.722912 241.733733 
L 352.300615 239.125422 
L 350.913687 237.039064 
L 349.650944 235.520877 
L 348.44344 234.399446 
L 347.297307 233.625408 
L 346.217773 233.147784 
L 345.124719 232.905653 
L 344.019311 232.900631 
L 342.902731 233.132752 
L 341.776171 233.600467 
L 340.553171 234.364021 
L 339.233239 235.474526 
L 337.816462 236.981513 
L 336.303639 238.930601 
L 334.607029 241.506159 
L 332.818608 244.631011 
L 330.764509 248.685817 
L 328.454076 253.761072 
L 325.728626 260.311673 
L 322.114948 269.629044 
L 314.850133 288.50116 
L 312.47898 293.967224 
L 310.652111 297.659946 
L 309.117322 300.280646 
L 307.848936 302.021476 
L 306.821765 303.085587 
L 305.955918 303.696813 
L 305.183171 303.984982 
L 304.497063 304.006438 
L 303.841986 303.790703 
L 303.218638 303.339216 
L 302.583588 302.592837 
L 301.904828 301.416844 
L 301.239764 299.802778 
L 300.566339 297.576742 
L 299.909624 294.635302 
L 299.273974 290.719365 
L 298.726182 285.909573 
L 298.302639 280.213614 
L 298.04261 273.712537 
L 297.986004 266.801585 
L 298.145295 259.952994 
L 298.504108 253.628834 
L 299.040393 248.012528 
L 299.677184 243.547736 
L 300.393468 240.01275 
L 301.156138 237.337855 
L 301.894626 235.503977 
L 302.616643 234.26019 
L 303.300678 233.486136 
L 303.977937 233.043696 
L 304.639638 232.878069 
L 305.332217 232.949736 
L 306.054935 233.258217 
L 306.866066 233.852872 
L 307.833486 234.859835 
L 308.971485 236.397629 
L 310.294848 238.585778 
L 311.889173 241.682123 
L 313.852756 246.023837 
L 316.374964 252.191023 
L 320.332666 262.546897 
L 325.88137 276.968483 
L 328.786198 283.898166 
L 331.188186 289.088057 
L 333.332787 293.207926 
L 335.210247 296.354572 
L 336.905073 298.78469 
L 338.503716 300.688918 
L 339.91633 302.036248 
L 341.231357 302.991437 
L 342.448908 303.606351 
L 343.569663 303.933891 
L 344.679725 304.024723 
L 345.777909 303.878243 
L 346.863043 303.495426 
L 347.933967 302.878828 
L 349.070068 301.958102 
L 350.265963 300.684189 
L 351.51536 299.010187 
L 352.810971 296.893734 
L 354.217294 294.145717 
L 355.646667 290.85857 
L 357.154365 286.836538 
L 358.779829 281.84464 
L 360.481831 275.868152 
L 362.263243 268.768479 
L 364.136679 260.344324 
L 366.066479 250.611652 
L 368.093898 239.201585 
L 369.132821 232.87351 
L 366.020916 250.854003 
L 363.98713 261.053484 
L 362.037102 269.718422 
L 360.172616 277.011891 
L 358.382555 283.128514 
L 356.665259 288.204655 
L 355.063612 292.260452 
L 353.538327 295.531828 
L 352.110217 298.087191 
L 350.796466 300.016775 
L 349.531195 301.504377 
L 348.321497 302.595977 
L 347.173472 303.341401 
L 346.092319 303.791986 
L 344.99778 304.00681 
L 343.891023 303.984441 
L 342.77323 303.725028 
L 341.645596 303.2303 
L 340.421595 302.438175 
L 339.100771 301.297902 
L 337.68325 299.760414 
L 336.169873 297.780674 
L 334.472933 295.173416 
L 332.595094 291.850649 
L 330.541676 287.746773 
L 328.232911 282.627825 
L 325.423593 275.824413 
L 321.650314 266.042669 
L 315.117101 249.049803 
L 312.659511 243.325158 
L 310.754921 239.432564 
L 309.214982 236.770323 
L 307.94185 234.990775 
L 306.851289 233.83989 
L 305.984154 233.218309 
L 305.21017 232.920352 
L 304.522883 232.889765 
L 303.866599 233.096394 
L 303.242018 233.538859 
L 302.605612 234.275686 
L 301.966304 235.358318 
L 301.29609 236.939894 
L 300.616788 239.131753 
L 299.953444 242.038608 
L 299.310069 245.919858 
L 298.753762 250.698772 
L 298.320918 256.370179 
L 298.050825 262.855792 
L 297.983771 269.763108 
L 298.132626 276.62074 
L 298.496488 283.169234 
L 299.029584 288.795637 
L 299.663564 293.272071 
L 300.377305 296.819704 
L 301.137695 299.507542 
L 301.874259 301.353442 
L 302.594594 302.608502 
L 303.277178 303.392802 
L 303.953113 303.844973 
L 304.613612 304.019714 
L 305.305017 303.957176 
L 306.02659 303.657775 
L 306.836522 303.072776 
L 307.802616 302.076599 
L 308.939183 300.550491 
L 310.261033 298.374596 
L 311.853724 295.291149 
L 313.81554 290.962602 
L 316.335822 284.808096 
L 320.291165 274.463082 
L 325.837714 260.039864 
L 328.74189 253.102378 
L 331.143572 247.90287 
L 333.288072 243.772243 
L 333.556364 243.293519 
L 333.556364 243.293519 
" clip-path="url(#pc0e3691754)" style="fill: none; stroke: #000000; stroke-width: 1.5; stroke-linecap: square"/>
   </g>
   <g id="patch_28">
    <path d="M 294.422246 307.584 
L 294.422246 229.315765 
" style="fill: none; stroke: #000000; stroke-width: 0.8; stroke-linejoin: miter; stroke-linecap: square"/>
   </g>
   <g id="patch_29">
    <path d="M 372.690482 307.584 
L 372.690482 229.315765 
" style="fill: none; stroke: #000000; stroke-width: 0.8; stroke-linejoin: miter; stroke-linecap: square"/>
   </g>
   <g id="patch_30">
    <path d="M 294.422246 307.584 
L 372.690482 307.584 
" style="fill: none; stroke: #000000; stroke-width: 0.8; stroke-linejoin: miter; stroke-linecap: square"/>
   </g>
   <g id="patch_31">
    <path d="M 294.422246 229.315765 
L 372.690482 229.315765 
" style="fill: none; stroke: #000000; stroke-width: 0.8; stroke-linejoin: miter; stroke-linecap: square"/>
   </g>
   <g id="text_6">
    <!-- 5:2 -->
    <g transform="translate(325.831364 317.237647) scale(0.096 -0.096)">
     <defs>
      <path id="DejaVuSans-35" d="M 691 4666 
L 3169 4666 
L 3169 4134 
L 1269 4134 
L 1269 2991 
Q 1406 3038 1543 3061 
Q 1681 3084 1819 3084 
Q 2600 3084 3056 2656 
Q 3513 2228 3513 1497 
Q 3513 744 3044 326 
Q 2575 -91 1722 -91 
Q 1428 -91 1123 -41 
Q 819 9 494 109 
L 494 744 
Q 775 591 1075 516 
Q 1375 441 1709 441 
Q 2250 441 2565 725 
Q 2881 1009 2881 1497 
Q 2881 1984 2565 2268 
Q 2250 2553 1709 2553 
Q 1456 2553 1204 2497 
Q 953 2441 691 2322 
L 691 4666 
z
" transform="scale(0.015625)"/>
     </defs>
     <use xlink:href="#DejaVuSans-35"/>
     <use xlink:href="#DejaVuSans-3a" x="63.623047"/>
     <use xlink:href="#DejaVuSans-32" x="97.314453"/>
    </g>
   </g>
  </g>
 </g>
 <defs>
  <clipPath id="p6634138bb2">
   <rect x="99.629517" y="41.472" width="78.268239" height="78.268235"/>
  </clipPath>
  <clipPath id="pf98b115b61">
   <rect x="294.422244" y="41.472" width="78.268239" height="78.268235"/>
  </clipPath>
  <clipPath id="p6cd8de9ee7">
   <rect x="99.629517" y="135.393882" width="78.268239" height="78.268235"/>
  </clipPath>
  <clipPath id="pbe8d4208f3">
   <rect x="294.422244" y="135.393882" width="78.268239" height="78.268235"/>
  </clipPath>
  <clipPath id="p84a00eccf7">
   <rect x="99.629517" y="229.315765" width="78.268239" height="78.268235"/>
  </clipPath>
  <clipPath id="pc0e3691754">
   <rect x="294.422246" y="229.315765" width="78.268236" height="78.268235"/>
  </clipPath>
 </defs>
</svg>
