<?xml version="1.0" encoding="UTF-8"?>
<!DOCTYPE svg PUBLIC "-//W3C//DTD SVG 1.1//EN" "http://www.w3.org/Graphics/SVG/1.1/DTD/svg11.dtd">
<svg version="1.2" width="67.84mm" height="94.78mm" viewBox="3771 2277 6784 9478" preserveAspectRatio="xMidYMid" fill-rule="evenodd" stroke-width="28.222" stroke-linejoin="round" xmlns="http://www.w3.org/2000/svg" xmlns:ooo="http://xml.openoffice.org/svg/export" xmlns:xlink="http://www.w3.org/1999/xlink" xmlns:presentation="http://sun.com/xmlns/staroffice/presentation" xmlns:smil="http://www.w3.org/2001/SMIL20/" xmlns:anim="urn:oasis:names:tc:opendocument:xmlns:animation:1.0" xml:space="preserve">
 <defs class="EmbeddedBulletChars">
  <g id="bullet-char-template-57356" transform="scale(0.00048828125,-0.00048828125)">
   <path d="M 580,1141 L 1163,571 580,0 -4,571 580,1141 Z"/>
  </g>
  <g id="bullet-char-template-57354" transform="scale(0.00048828125,-0.00048828125)">
   <path d="M 8,1128 L 1137,1128 1137,0 8,0 8,1128 Z"/>
  </g>
  <g id="bullet-char-template-10146" transform="scale(0.00048828125,-0.00048828125)">
   <path d="M 174,0 L 602,739 174,1481 1456,739 174,0 Z M 1358,739 L 309,1346 659,739 1358,739 Z"/>
  </g>
  <g id="bullet-char-template-10132" transform="scale(0.00048828125,-0.00048828125)">
   <path d="M 2015,739 L 1276,0 717,0 1260,543 174,543 174,936 1260,936 717,1481 1274,1481 2015,739 Z"/>
  </g>
  <g id="bullet-char-template-10007" transform="scale(0.00048828125,-0.00048828125)">
   <path d="M 0,-2 C -7,14 -16,27 -25,37 L 356,567 C 262,823 215,952 215,954 215,979 228,992 255,992 264,992 276,990 289,987 310,991 331,999 354,1012 L 381,999 492,748 772,1049 836,1024 860,1049 C 881,1039 901,1025 922,1006 886,937 835,863 770,784 769,783 710,716 594,584 L 774,223 C 774,196 753,168 711,139 L 727,119 C 717,90 699,76 672,76 641,76 570,178 457,381 L 164,-76 C 142,-110 111,-127 72,-127 30,-127 9,-110 8,-76 1,-67 -2,-52 -2,-32 -2,-23 -1,-13 0,-2 Z"/>
  </g>
  <g id="bullet-char-template-10004" transform="scale(0.00048828125,-0.00048828125)">
   <path d="M 285,-33 C 182,-33 111,30 74,156 52,228 41,333 41,471 41,549 55,616 82,672 116,743 169,778 240,778 293,778 328,747 346,684 L 369,508 C 377,444 397,411 428,410 L 1163,1116 C 1174,1127 1196,1133 1229,1133 1271,1133 1292,1118 1292,1087 L 1292,965 C 1292,929 1282,901 1262,881 L 442,47 C 390,-6 338,-33 285,-33 Z"/>
  </g>
  <g id="bullet-char-template-9679" transform="scale(0.00048828125,-0.00048828125)">
   <path d="M 813,0 C 632,0 489,54 383,161 276,268 223,411 223,592 223,773 276,916 383,1023 489,1130 632,1184 813,1184 992,1184 1136,1130 1245,1023 1353,916 1407,772 1407,592 1407,412 1353,268 1245,161 1136,54 992,0 813,0 Z"/>
  </g>
  <g id="bullet-char-template-8226" transform="scale(0.00048828125,-0.00048828125)">
   <path d="M 346,457 C 273,457 209,483 155,535 101,586 74,649 74,723 74,796 101,859 155,911 209,963 273,989 346,989 419,989 480,963 531,910 582,859 608,796 608,723 608,648 583,586 532,535 482,483 420,457 346,457 Z"/>
  </g>
  <g id="bullet-char-template-8211" transform="scale(0.00048828125,-0.00048828125)">
   <path d="M -4,459 L 1135,459 1135,606 -4,606 -4,459 Z"/>
  </g>
  <g id="bullet-char-template-61548" transform="scale(0.00048828125,-0.00048828125)">
   <path d="M 173,740 C 173,903 231,1043 346,1159 462,1274 601,1332 765,1332 928,1332 1067,1274 1183,1159 1299,1043 1357,903 1357,740 1357,577 1299,437 1183,322 1067,206 928,148 765,148 601,148 462,206 346,322 231,437 173,577 173,740 Z"/>
  </g>
 </defs>
 <g class="Page">
  <g class="com.sun.star.drawing.PolyPolygonShape">
   <g id="id3">
    <rect class="BoundingBox" stroke="none" fill="none" x="3799" y="9960" width="376" height="163"/>
    <path fill="rgb(255,255,255)" stroke="none" d="M 4157,10122 L 3799,10065 3816,9960 4174,10017 4157,10122 Z"/>
   </g>
  </g>
  <g class="com.sun.star.drawing.PolyLineShape">
   <g id="id4">
    <rect class="BoundingBox" stroke="none" fill="none" x="3771" y="9932" width="432" height="219"/>
    <path fill="none" stroke="rgb(35,31,32)" stroke-width="55" stroke-linejoin="round" d="M 4157,10122 L 3799,10065 3816,9960 4174,10017"/>
   </g>
  </g>
  <g class="com.sun.star.drawing.ClosedBezierShape">
   <g id="id5">
    <rect class="BoundingBox" stroke="none" fill="none" x="4929" y="9844" width="333" height="671"/>
    <path fill="rgb(255,255,255)" stroke="none" d="M 5225,10201 C 5198,10370 5118,10497 5046,10486 4975,10475 4939,10329 4966,10160 4993,9990 5072,9862 5144,9873 5215,9885 5251,10031 5225,10201 Z"/>
    <path fill="none" stroke="rgb(35,31,32)" stroke-width="55" stroke-linejoin="miter" d="M 5225,10201 C 5198,10370 5118,10497 5046,10486 4975,10475 4939,10329 4966,10160 4993,9990 5072,9862 5144,9873 5215,9885 5251,10031 5225,10201 Z"/>
   </g>
  </g>
  <g class="com.sun.star.drawing.OpenBezierShape">
   <g id="id6">
    <rect class="BoundingBox" stroke="none" fill="none" x="4131" y="9717" width="1009" height="796"/>
    <path fill="none" stroke="rgb(35,31,32)" stroke-width="55" stroke-linejoin="miter" d="M 5134,9871 L 4345,9746 C 4274,9734 4194,9862 4168,10032 4141,10201 4177,10347 4248,10358 L 5047,10485"/>
   </g>
  </g>
  <g class="com.sun.star.drawing.ClosedBezierShape">
   <g id="id7">
    <rect class="BoundingBox" stroke="none" fill="none" x="4633" y="9589" width="215" height="162"/>
    <path fill="rgb(255,255,255)" stroke="none" d="M 4819,9683 C 4814,9711 4776,9729 4732,9721 4689,9715 4657,9686 4662,9658 4666,9630 4705,9612 4748,9619 4792,9626 4823,9655 4819,9683 Z"/>
    <path fill="none" stroke="rgb(35,31,32)" stroke-width="55" stroke-linejoin="miter" d="M 4819,9683 C 4814,9711 4776,9729 4732,9721 4689,9715 4657,9686 4662,9658 4666,9630 4705,9612 4748,9619 4792,9626 4823,9655 4819,9683 Z"/>
   </g>
  </g>
  <g class="com.sun.star.drawing.ClosedBezierShape">
   <g id="id8">
    <rect class="BoundingBox" stroke="none" fill="none" x="4635" y="9657" width="185" height="226"/>
    <path fill="rgb(255,255,255)" stroke="none" d="M 4662,9657 L 4637,9816 C 4632,9845 4664,9873 4707,9880 4750,9887 4788,9869 4793,9841 L 4819,9682 4662,9657 Z"/>
   </g>
  </g>
  <g class="com.sun.star.drawing.OpenBezierShape">
   <g id="id9">
    <rect class="BoundingBox" stroke="none" fill="none" x="4608" y="9652" width="239" height="259"/>
    <path fill="none" stroke="rgb(35,31,32)" stroke-width="55" stroke-linejoin="miter" d="M 4662,9657 L 4637,9816 C 4632,9845 4664,9873 4707,9880 4750,9887 4788,9869 4793,9841 L 4819,9682"/>
   </g>
  </g>
  <g class="com.sun.star.drawing.ClosedBezierShape">
   <g id="id10">
    <rect class="BoundingBox" stroke="none" fill="none" x="4563" y="9574" width="367" height="155"/>
    <path fill="rgb(255,255,255)" stroke="none" d="M 4573,9574 L 4563,9641 C 4558,9670 4634,9705 4732,9721 4830,9736 4912,9726 4918,9698 L 4928,9631 4573,9574 Z"/>
   </g>
  </g>
  <g class="com.sun.star.drawing.OpenBezierShape">
   <g id="id11">
    <rect class="BoundingBox" stroke="none" fill="none" x="4535" y="9569" width="422" height="188"/>
    <path fill="none" stroke="rgb(35,31,32)" stroke-width="55" stroke-linejoin="miter" d="M 4573,9574 L 4563,9641 C 4558,9670 4634,9705 4732,9721 4830,9736 4912,9726 4918,9698 L 4928,9631"/>
   </g>
  </g>
  <g class="com.sun.star.drawing.ClosedBezierShape">
   <g id="id12">
    <rect class="BoundingBox" stroke="none" fill="none" x="4545" y="9517" width="412" height="174"/>
    <path fill="rgb(255,255,255)" stroke="none" d="M 4928,9633 C 4924,9661 4841,9671 4742,9655 4644,9640 4569,9605 4573,9575 4578,9547 4661,9537 4758,9553 4857,9568 4933,9603 4928,9633 Z"/>
    <path fill="none" stroke="rgb(35,31,32)" stroke-width="55" stroke-linejoin="miter" d="M 4928,9633 C 4924,9661 4841,9671 4742,9655 4644,9640 4569,9605 4573,9575 4578,9547 4661,9537 4758,9553 4857,9568 4933,9603 4928,9633 Z"/>
   </g>
  </g>
  <g class="com.sun.star.drawing.ClosedBezierShape">
   <g id="id13">
    <rect class="BoundingBox" stroke="none" fill="none" x="5090" y="10144" width="1817" height="393"/>
    <path fill="rgb(255,255,255)" stroke="none" d="M 6899,10535 L 5097,10248 C 5097,10248 5086,10223 5091,10194 5095,10165 5114,10144 5114,10144 L 6905,10431 6899,10535 Z"/>
   </g>
  </g>
  <g class="com.sun.star.drawing.OpenBezierShape">
   <g id="id14">
    <rect class="BoundingBox" stroke="none" fill="none" x="5062" y="10116" width="1872" height="448"/>
    <path fill="none" stroke="rgb(35,31,32)" stroke-width="55" stroke-linejoin="round" d="M 6899,10535 L 5097,10248 C 5097,10248 5086,10223 5091,10194 5095,10165 5114,10144 5114,10144 L 6905,10431"/>
   </g>
  </g>
  <g class="com.sun.star.drawing.ClosedBezierShape">
   <g id="id15">
    <rect class="BoundingBox" stroke="none" fill="none" x="6896" y="10093" width="622" height="941"/>
    <path fill="rgb(255,255,255)" stroke="none" d="M 6896,10104 L 6896,10903 C 6896,10975 7035,11033 7207,11033 7378,11033 7517,10975 7517,10903 L 7517,10093 6896,10104 Z"/>
   </g>
  </g>
  <g class="com.sun.star.drawing.OpenBezierShape">
   <g id="id16">
    <rect class="BoundingBox" stroke="none" fill="none" x="6868" y="10093" width="678" height="969"/>
    <path fill="none" stroke="rgb(35,31,32)" stroke-width="55" stroke-linejoin="miter" d="M 6896,10104 L 6896,10903 C 6896,10975 7035,11033 7207,11033 7378,11033 7517,10975 7517,10903 L 7517,10093"/>
   </g>
  </g>
  <g class="com.sun.star.drawing.ClosedBezierShape">
   <g id="id17">
    <rect class="BoundingBox" stroke="none" fill="none" x="6868" y="9935" width="678" height="319"/>
    <path fill="rgb(255,255,255)" stroke="none" d="M 7207,9963 C 7378,9963 7517,10022 7517,10094 7517,10166 7378,10225 7207,10225 7035,10225 6896,10166 6896,10094 6896,10022 7035,9963 7207,9963 Z"/>
    <path fill="none" stroke="rgb(35,31,32)" stroke-width="55" stroke-linejoin="miter" d="M 7207,9963 C 7378,9963 7517,10022 7517,10094 7517,10166 7378,10225 7207,10225 7035,10225 6896,10166 6896,10094 6896,10022 7035,9963 7207,9963 Z"/>
   </g>
  </g>
  <g class="com.sun.star.drawing.ClosedBezierShape">
   <g id="id18">
    <rect class="BoundingBox" stroke="none" fill="none" x="7476" y="10523" width="1593" height="355"/>
    <path fill="rgb(255,255,255)" stroke="none" d="M 9068,10772 L 7500,10523 C 7473,10547 7474,10600 7483,10627 L 9051,10877 9068,10772 Z"/>
   </g>
  </g>
  <g class="com.sun.star.drawing.OpenBezierShape">
   <g id="id19">
    <rect class="BoundingBox" stroke="none" fill="none" x="7449" y="10495" width="1648" height="411"/>
    <path fill="none" stroke="rgb(35,31,32)" stroke-width="55" stroke-linejoin="round" d="M 9068,10772 L 7500,10523 C 7473,10547 7474,10600 7483,10627 L 9051,10877"/>
   </g>
  </g>
  <g class="com.sun.star.drawing.ClosedBezierShape">
   <g id="id20">
    <rect class="BoundingBox" stroke="none" fill="none" x="9819" y="10620" width="334" height="671"/>
    <path fill="rgb(255,255,255)" stroke="none" d="M 10115,10977 C 10088,11146 10008,11273 9936,11262 9865,11251 9829,11105 9856,10936 9883,10767 9962,10638 10033,10649 10106,10661 10142,10808 10115,10977 Z"/>
    <path fill="none" stroke="rgb(35,31,32)" stroke-width="55" stroke-linejoin="miter" d="M 10115,10977 C 10088,11146 10008,11273 9936,11262 9865,11251 9829,11105 9856,10936 9883,10767 9962,10638 10033,10649 10106,10661 10142,10808 10115,10977 Z"/>
   </g>
  </g>
  <g class="com.sun.star.drawing.OpenBezierShape">
   <g id="id21">
    <rect class="BoundingBox" stroke="none" fill="none" x="9021" y="10493" width="1009" height="796"/>
    <path fill="none" stroke="rgb(35,31,32)" stroke-width="55" stroke-linejoin="miter" d="M 10024,10647 L 9235,10522 C 9164,10510 9085,10638 9058,10808 9031,10977 9067,11123 9138,11134 L 9937,11261"/>
   </g>
  </g>
  <g class="com.sun.star.drawing.ClosedBezierShape">
   <g id="id22">
    <rect class="BoundingBox" stroke="none" fill="none" x="9524" y="10365" width="215" height="162"/>
    <path fill="rgb(255,255,255)" stroke="none" d="M 9709,10459 C 9704,10487 9666,10504 9623,10497 9579,10491 9548,10462 9552,10433 9557,10405 9596,10388 9639,10395 9682,10401 9713,10430 9709,10459 Z"/>
    <path fill="none" stroke="rgb(35,31,32)" stroke-width="55" stroke-linejoin="miter" d="M 9709,10459 C 9704,10487 9666,10504 9623,10497 9579,10491 9548,10462 9552,10433 9557,10405 9596,10388 9639,10395 9682,10401 9713,10430 9709,10459 Z"/>
   </g>
  </g>
  <g class="com.sun.star.drawing.ClosedBezierShape">
   <g id="id23">
    <rect class="BoundingBox" stroke="none" fill="none" x="9527" y="10433" width="184" height="226"/>
    <path fill="rgb(255,255,255)" stroke="none" d="M 9553,10433 L 9528,10591 C 9523,10621 9555,10649 9598,10656 9641,10663 9679,10645 9684,10617 L 9710,10458 9553,10433 Z"/>
   </g>
  </g>
  <g class="com.sun.star.drawing.OpenBezierShape">
   <g id="id24">
    <rect class="BoundingBox" stroke="none" fill="none" x="9499" y="10428" width="239" height="259"/>
    <path fill="none" stroke="rgb(35,31,32)" stroke-width="55" stroke-linejoin="miter" d="M 9553,10433 L 9528,10591 C 9523,10621 9555,10649 9598,10656 9641,10663 9679,10645 9684,10617 L 9710,10458"/>
   </g>
  </g>
  <g class="com.sun.star.drawing.ClosedBezierShape">
   <g id="id25">
    <rect class="BoundingBox" stroke="none" fill="none" x="9453" y="10350" width="368" height="155"/>
    <path fill="rgb(255,255,255)" stroke="none" d="M 9463,10350 L 9453,10418 C 9448,10446 9524,10481 9622,10497 9721,10512 9804,10502 9808,10474 L 9819,10407 9463,10350 Z"/>
   </g>
  </g>
  <g class="com.sun.star.drawing.OpenBezierShape">
   <g id="id26">
    <rect class="BoundingBox" stroke="none" fill="none" x="9425" y="10345" width="423" height="188"/>
    <path fill="none" stroke="rgb(35,31,32)" stroke-width="55" stroke-linejoin="miter" d="M 9463,10350 L 9453,10418 C 9448,10446 9524,10481 9622,10497 9721,10512 9804,10502 9808,10474 L 9819,10407"/>
   </g>
  </g>
  <g class="com.sun.star.drawing.ClosedBezierShape">
   <g id="id27">
    <rect class="BoundingBox" stroke="none" fill="none" x="9435" y="10293" width="413" height="174"/>
    <path fill="rgb(255,255,255)" stroke="none" d="M 9819,10408 C 9814,10437 9730,10447 9632,10431 9535,10416 9459,10380 9463,10351 9468,10323 9551,10313 9649,10329 9747,10344 9823,10379 9819,10408 Z"/>
    <path fill="none" stroke="rgb(35,31,32)" stroke-width="55" stroke-linejoin="miter" d="M 9819,10408 C 9814,10437 9730,10447 9632,10431 9535,10416 9459,10380 9463,10351 9468,10323 9551,10313 9649,10329 9747,10344 9823,10379 9819,10408 Z"/>
   </g>
  </g>
  <g class="com.sun.star.drawing.PolyPolygonShape">
   <g id="id28">
    <rect class="BoundingBox" stroke="none" fill="none" x="9963" y="10878" width="592" height="243"/>
    <path fill="rgb(255,255,255)" stroke="none" d="M 9991,10957 L 10017,10906 10526,10987 10509,11092 10001,11011 9991,10957 Z"/>
    <path fill="none" stroke="rgb(35,31,32)" stroke-width="55" stroke-linejoin="round" d="M 9991,10957 L 10017,10906 10526,10987 10509,11092 10001,11011 9991,10957 Z"/>
   </g>
  </g>
  <g class="com.sun.star.drawing.ClosedBezierShape">
   <g id="id29">
    <rect class="BoundingBox" stroke="none" fill="none" x="9990" y="10906" width="30" height="107"/>
    <path fill="rgb(255,255,255)" stroke="none" d="M 10001,11011 C 10001,11011 9986,10992 9991,10956 9997,10921 10018,10906 10018,10906 L 10001,11011 Z"/>
   </g>
  </g>
  <g class="com.sun.star.drawing.OpenBezierShape">
   <g id="id30">
    <rect class="BoundingBox" stroke="none" fill="none" x="9962" y="10878" width="85" height="162"/>
    <path fill="none" stroke="rgb(35,31,32)" stroke-width="55" stroke-linejoin="round" d="M 10001,11011 C 10001,11011 9986,10992 9991,10956 9997,10921 10018,10906 10018,10906"/>
   </g>
  </g>
  <g class="com.sun.star.drawing.ClosedBezierShape">
   <g id="id31">
    <rect class="BoundingBox" stroke="none" fill="none" x="7122" y="3480" width="164" height="6659"/>
    <path fill="rgb(255,255,255)" stroke="none" d="M 7257,10094 C 7257,10094 7226,10110 7204,10110 7181,10110 7150,10094 7150,10094 L 7150,3508 7257,3508 7257,10094 Z"/>
    <path fill="none" stroke="rgb(35,31,32)" stroke-width="55" stroke-linejoin="round" stroke-linecap="round" d="M 7257,10094 C 7257,10094 7226,10110 7204,10110 7181,10110 7150,10094 7150,10094 L 7150,3508 7257,3508 7257,10094 Z"/>
   </g>
  </g>
  <g class="com.sun.star.drawing.ClosedBezierShape">
   <g id="id32">
    <rect class="BoundingBox" stroke="none" fill="none" x="6896" y="3196" width="622" height="605"/>
    <path fill="rgb(255,255,255)" stroke="none" d="M 6896,3207 L 6896,3670 C 6896,3742 7035,3800 7207,3800 7378,3800 7517,3742 7517,3670 L 7517,3196 6896,3207 Z"/>
   </g>
  </g>
  <g class="com.sun.star.drawing.OpenBezierShape">
   <g id="id33">
    <rect class="BoundingBox" stroke="none" fill="none" x="6868" y="3196" width="678" height="633"/>
    <path fill="none" stroke="rgb(35,31,32)" stroke-width="55" stroke-linejoin="miter" d="M 6896,3207 L 6896,3670 C 6896,3742 7035,3800 7207,3800 7378,3800 7517,3742 7517,3670 L 7517,3196"/>
   </g>
  </g>
  <g class="com.sun.star.drawing.ClosedBezierShape">
   <g id="id34">
    <rect class="BoundingBox" stroke="none" fill="none" x="6868" y="3038" width="678" height="319"/>
    <path fill="rgb(255,255,255)" stroke="none" d="M 7207,3066 C 7378,3066 7517,3124 7517,3196 7517,3269 7378,3328 7207,3328 7035,3328 6896,3269 6896,3196 6896,3124 7035,3066 7207,3066 Z"/>
    <path fill="none" stroke="rgb(35,31,32)" stroke-width="55" stroke-linejoin="miter" d="M 7207,3066 C 7378,3066 7517,3124 7517,3196 7517,3269 7378,3328 7207,3328 7035,3328 6896,3269 6896,3196 6896,3124 7035,3066 7207,3066 Z"/>
   </g>
  </g>
  <g class="com.sun.star.drawing.PolyPolygonShape">
   <g id="id35">
    <rect class="BoundingBox" stroke="none" fill="none" x="7060" y="2302" width="1677" height="781"/>
    <path fill="rgb(255,255,255)" stroke="none" d="M 7060,3082 L 8736,2302 7060,3082 Z"/>
   </g>
  </g>
  <g class="com.sun.star.drawing.LineShape">
   <g id="id36">
    <rect class="BoundingBox" stroke="none" fill="none" x="7048" y="2277" width="1701" height="831"/>
    <path fill="none" stroke="rgb(35,31,32)" stroke-width="55" stroke-linejoin="miter" d="M 7060,3082 L 8736,2302"/>
   </g>
  </g>
  <g class="com.sun.star.drawing.PolyPolygonShape">
   <g id="id37">
    <rect class="BoundingBox" stroke="none" fill="none" x="7460" y="2468" width="1666" height="806"/>
    <path fill="rgb(255,255,255)" stroke="none" d="M 7460,3272 L 9124,2468 7460,3272 Z"/>
   </g>
  </g>
  <g class="com.sun.star.drawing.LineShape">
   <g id="id38">
    <rect class="BoundingBox" stroke="none" fill="none" x="7448" y="2443" width="1689" height="855"/>
    <path fill="none" stroke="rgb(35,31,32)" stroke-width="55" stroke-linejoin="miter" d="M 7460,3272 L 9124,2468"/>
   </g>
  </g>
  <g class="com.sun.star.drawing.OpenBezierShape">
   <g id="id39">
    <rect class="BoundingBox" stroke="none" fill="none" x="7488" y="2281" width="1655" height="1508"/>
    <path fill="none" stroke="rgb(35,31,32)" stroke-width="55" stroke-linejoin="round" stroke-linecap="round" d="M 8721,2309 L 9114,2473 9114,3760 C 9114,3760 8742,3342 7516,3670"/>
   </g>
  </g>
  <g class="com.sun.star.drawing.PolyPolygonShape">
   <g id="id40">
    <rect class="BoundingBox" stroke="none" fill="none" x="7697" y="6813" width="252" height="321"/>
    <path fill="rgb(35,31,32)" stroke="none" d="M 7697,6814 L 7948,6814 7948,7133 7906,7133 7906,6852 7740,6852 7740,7133 7697,7133 7697,6814 Z"/>
   </g>
  </g>
  <g class="com.sun.star.drawing.PolyPolygonShape">
   <g id="id41">
    <rect class="BoundingBox" stroke="none" fill="none" x="4574" y="10661" width="208" height="320"/>
    <path fill="rgb(35,31,32)" stroke="none" d="M 4574,10661 L 4781,10661 4781,10699 4617,10699 4617,10980 4574,10980 4574,10661 Z"/>
   </g>
  </g>
  <g class="com.sun.star.drawing.PolyPolygonShape">
   <g id="id42">
    <rect class="BoundingBox" stroke="none" fill="none" x="9361" y="11435" width="208" height="320"/>
    <path fill="rgb(35,31,32)" stroke="none" d="M 9361,11435 L 9568,11435 9568,11473 9403,11473 9403,11754 9361,11754 9361,11435 Z"/>
   </g>
  </g>
  <g class="com.sun.star.drawing.ClosedBezierShape">
   <g id="id43">
    <rect class="BoundingBox" stroke="none" fill="none" x="5990" y="9700" width="284" height="331"/>
    <path fill="rgb(35,31,32)" stroke="none" d="M 6231,9913 L 6273,9923 C 6264,9958 6248,9984 6225,10002 6202,10021 6174,10030 6141,10030 6107,10030 6079,10023 6057,10009 6035,9995 6018,9974 6007,9948 5996,9922 5990,9893 5990,9863 5990,9830 5997,9801 6009,9776 6022,9751 6040,9733 6065,9720 6088,9707 6114,9700 6142,9700 6174,9700 6201,9709 6222,9725 6244,9741 6259,9764 6268,9793 L 6226,9803 C 6219,9780 6208,9763 6194,9752 6180,9742 6162,9736 6141,9736 6116,9736 6096,9742 6079,9754 6063,9766 6051,9782 6045,9801 6037,9821 6034,9841 6034,9862 6034,9890 6038,9913 6047,9933 6055,9954 6067,9969 6083,9979 6100,9989 6118,9994 6138,9994 6161,9994 6181,9987 6198,9973 6214,9960 6225,9939 6231,9913 Z"/>
   </g>
  </g>
 </g>
</svg>